# Blender v2.80 (sub 75) OBJ File: 'building3.blend'
# www.blender.org
mtllib building3.mtl
o Cube
v 3.771153 5.032436 -1.571319
v 4.134536 0.000000 -1.996856
v 3.771153 5.032436 1.715995
v 4.134536 0.000000 1.996856
v -3.771153 5.032436 -1.571319
v -4.134536 0.000000 -1.996856
v -3.771153 5.032436 1.715995
v -4.134536 0.000000 1.996856
v 4.028190 5.529926 1.945431
v -4.027926 5.529926 1.945431
v 4.028190 5.529926 -1.945431
v -4.027926 5.529926 -1.945431
v 3.778096 5.538804 1.679185
v -3.778096 5.538804 1.679185
v 3.778096 5.538804 -1.651082
v -3.778096 5.538804 -1.651082
v 4.134536 4.761683 -1.996856
v -4.134536 4.761683 1.996856
v 4.134536 4.761683 1.996856
v -4.134536 4.761683 -1.996856
v -4.186130 4.757951 2.021838
v -4.186130 5.294389 2.021838
v 4.186393 5.294389 2.021838
v 4.186393 5.294389 -2.021838
v -4.186130 5.294389 -2.021838
v 4.186393 4.757951 -2.021838
v 4.186393 4.757951 2.021838
v -4.186130 4.757951 -2.021838
v -3.796092 3.887586 2.320667
v -3.796092 6.048844 2.320667
v -3.796092 3.887586 2.018270
v -3.796092 6.048844 2.018270
v 3.604063 3.887586 2.320667
v 3.604063 6.048844 2.320667
v 3.604063 3.887586 2.018270
v 3.604063 6.048844 2.018270
v -2.251712 3.887586 2.018270
v -2.251712 6.048844 2.018270
v -2.251712 3.887586 2.320667
v -2.251712 6.048844 2.320667
v 2.236644 6.048844 2.018270
v 2.236644 3.887586 2.320667
v 2.236643 3.887586 2.018270
v 2.236643 6.048844 2.320667
v 2.236643 7.326732 2.320667
v -2.251712 7.326732 2.320667
v -2.251712 7.326732 2.018270
v 2.236644 7.326732 2.018270
v 4.134536 2.303563 -1.996856
v 4.134536 2.303563 1.996856
v -4.134536 2.303563 -1.996856
v -4.134536 2.303563 1.996856
v -1.564244 0.000000 -1.996856
v -1.523828 5.529926 1.945431
v -1.306312 0.061876 1.859655
v -1.523828 5.529926 -1.945431
v -1.429390 5.538804 1.679185
v -1.429390 5.538804 -1.651082
v -1.426763 5.032436 1.715995
v -1.426763 5.032436 -1.571319
v -1.564244 4.761683 -1.996856
v -1.564244 4.761683 1.996856
v -1.583682 5.294389 2.021838
v -1.583682 5.294389 -2.021838
v -1.583682 4.757951 -2.021838
v -1.583682 4.757951 2.021838
v -1.306312 2.019902 1.859655
v -1.564244 2.303563 -1.996856
v 1.325366 0.061876 1.859655
v 1.542654 5.529926 -1.945431
v 1.446801 5.538804 -1.651082
v 1.444143 5.032436 -1.571319
v 1.583298 4.761683 -1.996856
v 1.603237 5.294389 -2.021838
v 1.603237 4.757951 -2.021838
v 1.583298 2.303563 -1.996856
v 1.583298 0.000000 -1.996856
v 1.542654 5.529926 1.945431
v 1.446801 5.538804 1.679185
v 1.444143 5.032436 1.715995
v 1.583298 4.761683 1.996856
v 1.603237 5.294389 2.021838
v 1.603237 4.757951 2.021838
v 1.325366 2.019902 1.859655
v 1.583298 2.303563 1.996856
v -1.564244 2.303563 1.996856
v -1.564244 0.000000 1.996856
v 1.583298 0.000000 1.996856
v 3.972294 2.105932 1.999404
v -4.024123 2.105932 2.607049
v 3.972294 2.105932 2.607049
v -4.024123 2.626173 2.525324
v 3.972294 2.626173 2.525324
v -4.024123 3.007016 2.302050
v 3.972294 3.007016 2.302050
v -4.024123 3.146414 1.997050
v 3.972294 3.146414 1.997050
v -4.024123 2.105932 2.009163
v -0.115375 0.000000 -1.996856
v -0.112273 5.529926 1.945431
v -0.105429 5.538804 1.679185
v -0.105235 5.032436 1.715995
v -0.115375 4.761683 1.996856
v -0.116687 5.294389 2.021838
v -0.116687 4.757951 2.021838
v -0.115375 2.303563 1.996856
v -0.115376 0.000000 1.996856
v -0.112273 5.529926 -1.945431
v -0.105429 5.538804 -1.651082
v -0.105235 5.032436 -1.571319
v -0.115376 4.761683 -1.996856
v -0.116687 5.294389 -2.021838
v -0.116687 4.757951 -2.021838
v -0.115376 2.303563 -1.996856
v -0.262621 2.019902 1.859655
v -0.262621 0.061876 1.859655
v 0.126179 0.000000 1.996856
v 0.123061 5.529926 -1.945431
v 0.115301 5.538804 -1.651082
v 0.115089 5.032436 -1.571319
v 0.126179 4.761683 -1.996856
v 0.127889 5.294389 -2.021838
v 0.127889 4.757951 -2.021838
v 0.126179 2.303563 -1.996856
v 0.273962 0.061876 1.859655
v 0.126179 0.000000 -1.996856
v 0.123061 5.529926 1.945431
v 0.115301 5.538804 1.679185
v 0.115089 5.032436 1.715995
v 0.126179 4.761683 1.996856
v 0.127889 5.294389 2.021838
v 0.127889 4.757951 2.021838
v 0.126179 2.303563 1.996856
v 0.273962 2.019902 1.859655
v -0.107237 2.210720 2.009609
v -1.461697 2.210720 2.009609
v -1.461697 0.044535 2.009609
v 0.118578 0.044535 2.009609
v 1.480751 0.044535 2.009609
v 1.480751 2.210720 2.009609
v -0.107237 0.044535 2.009609
v 0.118578 2.210720 2.009609
vt 0.911291 0.530920
vt 0.963161 0.530920
vt 0.963161 0.696793
vt 0.911291 0.696793
vt 0.916429 0.710872
vt 0.976740 0.710872
vt 0.976740 0.710872
vt 0.916429 0.710872
vt 0.842573 0.516841
vt 0.782709 0.516841
vt 0.782709 0.516841
vt 0.842573 0.516841
vt 0.659344 0.817885
vt 0.659465 0.753152
vt 0.869278 0.753546
vt 0.869156 0.818279
vt 0.515209 0.572506
vt 0.449992 0.572383
vt 0.449992 0.572383
vt 0.515209 0.572506
vt 0.659410 0.782590
vt 0.449598 0.782195
vt 0.449598 0.782195
vt 0.659410 0.782590
vt 0.913264 0.702508
vt 0.968376 0.702508
vt 0.791073 0.525205
vt 0.791073 0.702508
vt 0.782709 0.710872
vt 0.968376 0.525205
vt 0.976740 0.516841
vt 0.845776 0.525205
vt 0.796288 0.530920
vt 0.796288 0.696793
vt 0.847773 0.530920
vt 0.594897 0.665770
vt 0.595072 0.572656
vt 0.659804 0.572777
vt 0.659629 0.665892
vt 0.686875 0.233223
vt 0.759426 0.233223
vt 0.759426 0.396699
vt 0.686875 0.396699
vt 0.449423 0.875310
vt 0.659235 0.875704
vt 0.384206 0.875187
vt 0.384382 0.782073
vt 0.384382 0.782073
vt 0.384437 0.752635
vt 0.449653 0.752758
vt 0.659465 0.753152
vt 0.759426 0.233223
vt 0.782363 0.233223
vt 0.782363 0.396699
vt 0.759426 0.396699
vt 0.595072 0.572656
vt 0.595127 0.543218
vt 0.659860 0.543340
vt 0.659804 0.572777
vt 0.304518 0.781923
vt 0.239786 0.781801
vt 0.239786 0.781801
vt 0.304518 0.781923
vt 0.976740 0.516841
vt 0.782709 0.710872
vt 0.147986 0.023613
vt 0.290843 0.023613
vt 0.290843 0.166469
vt 0.147986 0.166469
vt 0.147986 0.282928
vt 0.290843 0.282928
vt 0.290843 0.309326
vt 0.147986 0.309326
vt 0.290843 0.452183
vt 0.147986 0.452183
vt 0.147986 0.637204
vt 0.290843 0.637204
vt 0.290843 0.667017
vt 0.147986 0.667017
vt 0.121589 0.309326
vt 0.121589 0.452183
vt 0.403886 0.309326
vt 0.433700 0.309326
vt 0.433700 0.452183
vt 0.403886 0.452183
vt 0.317240 0.452183
vt 0.317240 0.309326
vt 0.317240 0.309326
vt 0.317240 0.452183
vt 0.005129 0.309326
vt 0.034943 0.309326
vt 0.034943 0.452183
vt 0.005129 0.452183
vt 0.147986 0.478580
vt 0.290843 0.478580
vt 0.290843 0.196283
vt 0.147986 0.196283
vt 0.403886 0.309326
vt 0.403886 0.452183
vt 0.290843 0.478580
vt 0.290843 0.565226
vt 0.290843 0.196283
vt 0.290843 0.282928
vt 0.384042 0.962447
vt 0.449259 0.962570
vt 0.659071 0.962964
vt 0.618886 0.233223
vt 0.618886 0.396699
vt 0.594733 0.753030
vt 0.449653 0.752758
vt 0.449817 0.665498
vt 0.515034 0.665620
vt 0.514870 0.752880
vt 0.351029 0.955841
vt 0.351168 0.881670
vt 0.377650 0.881720
vt 0.377510 0.955891
vt 0.450048 0.542945
vt 0.515264 0.543068
vt 0.347619 0.782004
vt 0.347674 0.752566
vt 0.347444 0.875118
vt 0.347619 0.782004
vt 0.913264 0.525205
vt 0.882053 0.696793
vt 0.882198 0.702508
vt 0.916429 0.516841
vt 0.882431 0.710872
vt 0.551971 0.572575
vt 0.551971 0.572575
vt 0.659194 0.897748
vt 0.869006 0.898142
vt 0.868883 0.963359
vt 0.916429 0.516841
vt 0.882431 0.710872
vt 0.882053 0.530920
vt 0.847773 0.696793
vt 0.842573 0.710872
vt 0.842573 0.710872
vt 0.845776 0.702508
vt 0.239611 0.874916
vt 0.304344 0.875037
vt 0.239841 0.752363
vt 0.304574 0.752485
vt 0.239446 0.962176
vt 0.304179 0.962297
vt 0.557761 0.752961
vt 0.557925 0.665701
vt 0.341490 0.781992
vt 0.341490 0.781992
vt 0.558100 0.572586
vt 0.558155 0.543149
vt 0.558100 0.572586
vt 0.877178 0.530920
vt 0.877019 0.525205
vt 0.876764 0.516841
vt 0.659274 0.854857
vt 0.869087 0.855251
vt 0.876764 0.516841
vt 0.341503 0.877709
vt 0.306940 0.877644
vt 0.341315 0.875107
vt 0.381445 0.959841
vt 0.381600 0.877784
vt 0.347078 0.959776
vt 0.347280 0.962378
vt 0.306786 0.959700
vt 0.955962 0.218036
vt 0.955962 0.455141
vt 0.916445 0.455141
vt 0.916445 0.218036
vt 0.876927 0.455141
vt 0.876927 0.218036
vt 0.837410 0.455141
vt 0.837410 0.218036
vt 0.841296 0.167387
vt 0.975129 0.164729
vt 0.975129 0.033554
vt 0.908213 0.051484
vt 0.859227 0.100471
vt 0.816889 0.033554
vt 0.816889 0.166870
vt 0.683057 0.167387
vt 0.700987 0.100471
vt 0.749973 0.051484
vt 0.341349 0.959765
vt 0.341151 0.962367
vt 0.347233 0.877720
vt 0.882432 0.516841
vt 0.882432 0.516841
vt 0.659263 0.860986
vt 0.869075 0.861380
vt 0.882198 0.525205
vt 0.551796 0.665689
vt 0.552026 0.543137
vt 0.551632 0.752949
vt 0.877178 0.696793
vt 0.876764 0.710872
vt 0.876764 0.710872
vt 0.877019 0.702508
vt 0.341545 0.752554
vt 0.310736 0.955765
vt 0.310876 0.881594
vt 0.337553 0.881644
vt 0.337414 0.955815
vn 0.0000 1.0000 0.0000
vn 0.0000 0.3086 0.9512
vn 0.0000 0.3086 -0.9512
vn 0.0000 -1.0000 0.0000
vn 0.0000 -0.9890 0.1477
vn 0.0722 -0.9974 0.0000
vn 0.0000 0.9994 0.0333
vn 0.0355 0.9994 0.0000
vn -0.0355 0.9994 0.0000
vn 0.0000 0.9995 -0.0301
vn 0.0000 -0.0725 -0.9974
vn -0.9999 0.0137 0.0000
vn 0.9999 0.0137 0.0000
vn 0.0000 0.1556 0.9878
vn 0.0000 0.0000 -1.0000
vn 1.0000 0.0000 0.0000
vn -1.0000 0.0000 0.0000
vn 0.0000 0.0000 1.0000
vn 0.0000 -0.9890 -0.1477
vn -0.0718 -0.9974 0.0000
vn -0.8301 0.5576 0.0000
vn 0.8301 0.5576 0.0000
vn 0.0000 -0.9890 0.1478
vn 0.0000 0.1361 0.9907
vn -0.1234 0.0000 0.9924
vn 0.0000 -0.2753 0.9614
vn 0.1234 0.0000 0.9924
vn 0.0000 0.1552 0.9879
vn 0.0000 0.5058 0.8627
vn 0.0000 0.9095 0.4157
vn 0.0000 -0.9890 -0.1478
vn 0.0000 -0.6179 0.7863
vn 0.6944 0.0000 0.7196
vn 0.0000 0.9934 0.1149
vn -0.6944 0.0000 0.7196
usemtl Material
s off
f 60/1/1 5/2/1 7/3/1 59/4/1
f 54/5/2 10/6/2 22/7/2 63/8/2
f 70/9/3 11/10/3 24/11/3 74/12/3
f 77/13/4 2/14/4 4/15/4 88/16/4
f 61/17/5 20/18/5 28/19/5 65/20/5
f 20/21/6 18/22/6 21/23/6 28/24/6
f 57/25/7 14/26/7 10/6/7 54/5/7
f 15/27/8 13/28/8 9/29/8 11/10/8
f 14/26/9 16/30/9 12/31/9 10/6/9
f 71/32/10 15/27/10 11/10/10 70/9/10
f 59/4/11 7/3/11 14/26/11 57/25/11
f 1/33/12 3/34/12 13/28/12 15/27/12
f 7/3/13 5/2/13 16/30/13 14/26/13
f 72/35/14 1/33/14 15/27/14 71/32/14
f 76/36/15 73/37/15 17/38/15 49/39/15
f 49/40/16 17/41/16 19/42/16 50/43/16
f 52/44/17 18/22/17 20/21/17 51/45/17
f 86/46/18 62/47/18 18/22/18 52/44/18
f 66/48/18 63/49/18 22/50/18 21/23/18
f 21/23/17 22/50/17 25/51/17 28/24/17
f 26/52/16 24/53/16 23/54/16 27/55/16
f 75/56/15 74/57/15 24/58/15 26/59/15
f 81/60/19 19/61/19 27/62/19 83/63/19
f 19/42/20 17/41/20 26/52/20 27/55/20
f 10/6/21 12/31/21 25/64/21 22/7/21
f 11/10/22 9/29/22 23/65/22 24/11/22
f 29/66/17 30/67/17 32/68/17 31/69/17
f 43/70/15 41/71/15 36/72/15 35/73/15
f 35/73/16 36/72/16 34/74/16 33/75/16
f 39/76/18 40/77/18 30/78/18 29/79/18
f 43/80/4 35/73/4 33/75/4 42/81/4
f 38/82/1 32/83/1 30/84/1 40/85/1
f 44/86/16 41/87/16 48/88/16 45/89/16
f 31/90/4 37/91/4 39/92/4 29/93/4
f 42/94/18 44/95/18 40/77/18 39/76/18
f 31/69/15 32/68/15 38/96/15 37/97/15
f 33/75/18 34/74/18 44/95/18 42/94/18
f 36/72/1 41/87/1 44/86/1 34/74/1
f 37/91/4 43/80/4 42/81/4 39/92/4
f 37/97/15 38/96/15 41/71/15 43/70/15
f 48/88/1 47/98/1 46/99/1 45/89/1
f 40/77/18 44/95/18 45/100/18 46/101/18
f 41/71/15 38/96/15 47/102/15 48/103/15
f 38/82/17 40/85/17 46/99/17 47/98/17
f 87/104/18 86/46/18 52/44/18 8/105/18
f 8/105/17 52/44/17 51/45/17 6/106/17
f 2/107/16 49/40/16 50/43/16 4/108/16
f 77/109/15 76/36/15 49/39/15 2/14/15
f 6/110/15 51/111/15 68/112/15 53/113/15
f 116/114/18 115/115/18 67/116/18 55/117/18
f 18/22/19 62/47/19 66/48/19 21/23/19
f 28/19/15 25/118/15 64/119/15 65/20/15
f 105/120/18 104/121/18 63/49/18 66/48/18
f 106/122/18 103/123/18 62/47/18 86/46/18
f 51/111/15 20/18/15 61/17/15 68/112/15
f 5/2/14 60/1/14 58/124/14 16/30/14
f 102/125/11 59/4/11 57/25/11 101/126/11
f 16/30/10 58/124/10 56/127/10 12/31/10
f 101/126/7 57/25/7 54/5/7 100/128/7
f 111/129/5 61/17/5 65/20/5 113/130/5
f 6/106/4 53/131/4 87/132/4 8/133/4
f 12/31/3 56/127/3 64/134/3 25/64/3
f 100/128/2 54/5/2 63/8/2 104/135/2
f 110/136/1 60/1/1 59/4/1 102/125/1
f 1/33/1 72/35/1 80/137/1 3/34/1
f 9/29/2 78/138/2 82/139/2 23/65/2
f 17/38/23 73/37/23 75/56/23 26/59/23
f 13/28/7 79/140/7 78/138/7 9/29/7
f 3/34/11 80/137/11 79/140/11 13/28/11
f 50/141/18 19/61/18 81/60/18 85/142/18
f 27/62/18 23/143/18 82/144/18 83/63/18
f 4/145/18 50/141/18 85/142/18 88/146/18
f 126/147/15 124/148/15 76/36/15 77/109/15
f 130/149/19 81/60/19 83/63/19 132/150/19
f 123/151/15 122/152/15 74/57/15 75/56/15
f 124/148/15 121/153/15 73/37/15 76/36/15
f 120/154/14 72/35/14 71/32/14 119/155/14
f 119/155/10 71/32/10 70/9/10 118/156/10
f 126/157/4 77/13/4 88/16/4 117/158/4
f 118/156/3 70/9/3 74/12/3 122/159/3
f 142/160/24 140/161/24 85/142/24 133/162/24
f 137/163/25 136/164/25 86/46/25 87/104/25
f 141/165/26 137/163/26 87/104/26 107/166/26
f 140/161/27 139/167/27 88/146/27 85/142/27
f 90/168/28 91/169/28 93/170/28 92/171/28
f 92/171/29 93/170/29 95/172/29 94/173/29
f 94/173/30 95/172/30 97/174/30 96/175/30
f 96/176/17 98/177/17 90/178/17 92/179/17 94/180/17
f 91/181/16 89/182/16 97/183/16 95/184/16 93/185/16
f 138/186/26 141/165/26 107/166/26 117/187/26
f 136/164/24 135/188/24 106/122/24 86/46/24
f 56/127/3 108/189/3 112/190/3 64/134/3
f 53/131/4 99/191/4 107/192/4 87/132/4
f 58/124/10 109/193/10 108/189/10 56/127/10
f 60/1/14 110/136/14 109/193/14 58/124/14
f 68/112/15 61/17/15 111/129/15 114/194/15
f 65/20/15 64/119/15 112/195/15 113/130/15
f 62/47/31 103/123/31 105/120/31 66/48/31
f 53/113/15 68/112/15 114/194/15 99/196/15
f 120/154/1 110/136/1 102/125/1 129/197/1
f 127/198/2 100/128/2 104/135/2 131/199/2
f 121/153/5 111/129/5 113/130/5 123/151/5
f 128/200/7 101/126/7 100/128/7 127/198/7
f 129/197/11 102/125/11 101/126/11 128/200/11
f 133/162/18 130/149/18 103/123/18 106/122/18
f 132/150/18 131/201/18 104/121/18 105/120/18
f 138/186/18 142/160/18 135/188/18 141/165/18
f 69/202/18 84/203/18 134/204/18 125/205/18
f 83/63/18 82/144/18 131/201/18 132/150/18
f 85/142/18 81/60/18 130/149/18 133/162/18
f 80/137/11 129/197/11 128/200/11 79/140/11
f 79/140/7 128/200/7 127/198/7 78/138/7
f 73/37/5 121/153/5 123/151/5 75/56/5
f 78/138/2 127/198/2 131/199/2 82/139/2
f 72/35/1 120/154/1 129/197/1 80/137/1
f 139/167/26 138/186/26 117/187/26 88/146/26
f 135/188/24 142/160/24 133/162/24 106/122/24
f 108/189/3 118/156/3 122/159/3 112/190/3
f 99/191/4 126/157/4 117/158/4 107/192/4
f 109/193/10 119/155/10 118/156/10 108/189/10
f 110/136/14 120/154/14 119/155/14 109/193/14
f 114/194/15 111/129/15 121/153/15 124/148/15
f 113/130/15 112/195/15 122/152/15 123/151/15
f 103/123/19 130/149/19 132/150/19 105/120/19
f 99/196/15 114/194/15 124/148/15 126/147/15
f 67/116/32 115/115/32 135/188/32 136/164/32
f 55/117/33 67/116/33 136/164/33 137/163/33
f 69/202/34 125/205/34 138/186/34 139/167/34
f 84/203/35 69/202/35 139/167/35 140/161/35
f 116/114/34 55/117/34 137/163/34 141/165/34
f 115/115/35 116/114/35 141/165/35 135/188/35
f 134/204/32 84/203/32 140/161/32 142/160/32
f 125/205/33 134/204/33 142/160/33 138/186/33
