# Blender v2.80 (sub 75) OBJ File: 'fence.blend'
# www.blender.org
mtllib constructionSign.mtl
o Plane_Plane.002
v -3.280130 15.299287 -0.000000
v 3.280130 15.299287 -0.000000
v -3.280130 19.241531 0.000000
v 3.280130 19.241531 0.000000
v -3.280130 15.299287 -0.014134
v 3.280130 15.299287 -0.014134
v -3.280130 19.241531 -0.014133
v 3.280130 19.241531 -0.014133
vt 0.027976 0.517856
vt 0.952415 0.517856
vt 0.952416 0.982144
vt 0.027976 0.982144
vt 0.980392 0.500000
vt 0.000000 0.500000
vt 0.000000 0.000000
vt 0.980391 0.000000
vt 0.995098 0.500000
vt 0.995098 0.000000
vt 1.000000 0.000000
vt 1.000000 0.500000
vt 0.995098 0.000000
vt 0.990196 0.500000
vt 0.990196 0.000000
vt 0.980392 0.500000
vt 0.980392 0.000000
vt 0.985293 0.000000
vt 0.985294 0.500000
vt 0.985294 0.500000
vt 0.985294 0.000000
vt 0.990196 0.000000
vt 0.990196 0.500000
vn 0.0000 -0.0000 1.0000
vn 0.0000 0.0000 -1.0000
vn -1.0000 -0.0000 0.0000
vn 0.0000 -1.0000 0.0000
vn 1.0000 -0.0000 0.0000
vn 0.0000 1.0000 0.0000
usemtl Material.002
s off
f 1/1/1 2/2/1 4/3/1 3/4/1
f 5/5/2 7/6/2 8/7/2 6/8/2
f 1/9/3 3/10/3 7/11/3 5/12/3
f 2/13/4 1/9/4 5/14/4 6/15/4
f 4/16/5 2/17/5 6/18/5 8/19/5
f 3/20/6 4/21/6 8/22/6 7/23/6
