# Blender v2.80 (sub 75) OBJ File: 'cornerRoad.blend'
# www.blender.org
mtllib cornerRoad1.mtl
o Cube_Cube.001
v -4.045822 -0.018436 0.011452
v -4.045822 0.115722 0.011452
v -4.045822 -0.018436 -6.371940
v -4.045822 0.115722 -6.371940
v 2.337569 -0.018436 0.011452
v 2.337569 0.115722 0.011452
v -0.327934 0.115722 -4.586085
v -0.327934 -0.018436 -4.586085
v -0.565011 0.115722 -5.158441
v -0.565011 -0.018436 -5.158441
v 1.113051 0.115722 -3.480379
v 1.113051 -0.018436 -3.480379
v 0.049202 0.115722 -4.094592
v 0.049202 -0.018436 -4.094592
v -0.642900 0.115722 -5.789028
v -0.645380 -0.018436 -5.787755
v 0.540695 0.115722 -3.717456
v 0.540695 -0.018436 -3.717456
v -0.645682 -0.018436 -6.371940
v -0.645682 0.115722 -6.371940
v 1.727265 0.115722 -3.399516
v 1.727265 -0.018436 -3.399516
v 2.337569 -0.018436 -3.399516
v 2.337569 0.115722 -3.399516
v 2.337569 0.115722 -3.262231
v -0.797625 0.115722 -6.371940
v -0.057784 0.115722 -4.012641
v -0.439004 0.115722 -4.494307
v -0.623898 0.115722 -4.773296
v 0.601770 0.115722 -3.543655
v -0.742085 0.115722 -5.220173
v 1.173223 0.115722 -3.335843
v 0.341565 0.115722 -3.669783
v -0.780933 0.115722 -5.812673
v 1.753498 0.115722 -3.270540
v 2.337569 0.115722 -3.044908
v 0.681364 0.115722 -3.262159
v -0.197753 0.115722 -3.871407
v -0.645892 0.115722 -4.345530
v -0.873393 0.115722 -4.814355
v 1.246839 0.115722 -3.124211
v 0.186004 0.115722 -3.527275
v -1.009469 0.115722 -6.371940
v -0.962699 0.115722 -5.297085
v 1.792640 0.115722 -3.050596
v -0.992061 0.115722 -5.853106
vt 0.995463 0.757650
vt 0.750862 0.993913
vt 0.750862 0.757650
vt 0.382850 0.757648
vt 0.377077 0.757648
vt 0.377077 0.521386
vt 0.995463 0.757650
vt 0.750862 0.521387
vt 0.995463 0.521387
vt 0.593947 0.909624
vt 0.575114 0.895665
vt 0.492786 0.993913
vt 0.376651 0.993912
vt 0.376651 0.757648
vt 0.905491 0.285124
vt 0.926033 0.521386
vt 0.905491 0.521387
vt 0.309860 0.757648
vt 0.286673 0.521386
vt 0.309860 0.521386
vt 0.639639 0.712736
vt 0.639626 0.695773
vt 0.648724 0.691552
vt 0.333599 0.521385
vt 0.356525 0.757648
vt 0.333599 0.757648
vt 0.948954 0.521385
vt 0.973264 0.285122
vt 0.973300 0.521385
vt 0.926033 0.285123
vt 0.995463 0.285123
vt 0.995463 0.521386
vt 0.356525 0.521385
vt 0.377077 0.757648
vt 0.750862 0.521387
vt 0.750862 0.634510
vt 0.729981 0.634111
vt 0.709066 0.636507
vt 0.506260 0.521387
vt 0.630514 0.700001
vt 0.506260 0.757650
vt 0.691995 0.639383
vt 0.669556 0.649623
vt 0.644305 0.686274
vt 0.663175 0.673360
vt 0.636548 0.757650
vt 0.631365 0.736950
vt 0.636655 0.736075
vt 0.632854 0.715021
vt 0.674107 0.653197
vt 0.682008 0.659402
vt 0.608398 0.927815
vt 0.620574 0.993913
vt 0.620562 0.972291
vt 0.617482 0.948999
vt 0.506260 0.883897
vt 0.506260 0.757650
vt 0.529646 0.883897
vt 0.553182 0.886890
vt 0.706246 0.644276
vt 0.727476 0.647634
vt 0.703940 0.650627
vt 0.657940 0.668290
vt 0.630726 0.757650
vt 0.624285 0.738122
vt 0.624400 0.717867
vt 0.687052 0.649291
vt 0.728481 0.642208
vt 0.750862 0.647634
vt 0.652616 0.663134
vt 0.639747 0.680830
vt 0.750862 0.642553
vt 0.623618 0.757650
vt 0.995463 0.993913
vt 0.506260 0.521385
vt 0.389898 0.757648
vt 0.506260 0.757648
vt 0.750862 0.757650
vt 0.506260 0.757650
vt 0.506260 0.993913
vt 0.501044 0.993913
vt 0.286673 0.757648
vt 0.948954 0.285122
vt 0.377077 0.521385
vn -1.0000 0.0000 0.0000
vn 0.0000 0.0000 -1.0000
vn 0.0000 0.0000 1.0000
vn -0.0000 -1.0000 0.0000
vn 1.0000 0.0000 0.0000
vn 0.7934 0.0000 -0.6088
vn 0.0000 1.0000 0.0000
vn 0.3827 0.0000 -0.9239
vn 0.9923 -0.0195 -0.1226
vn 0.9239 0.0000 -0.3827
vn 1.0000 0.0000 -0.0048
vn 0.6088 0.0000 -0.7934
vn 0.1305 0.0000 -0.9914
vn 0.9919 0.0000 -0.1267
vn 0.9998 -0.0185 -0.0005
usemtl Material.004
s off
f 2/1/1 3/2/1 1/3/1
f 26/4/2 20/5/2 19/6/2
f 6/7/3 1/8/3 5/9/3
f 14/10/4 18/11/4 1/3/4
f 36/12/5 6/13/5 5/14/5
f 14/15/6 7/16/6 13/17/6
f 21/18/2 23/19/2 22/20/2
f 9/21/7 29/22/7 7/23/7
f 12/24/8 17/25/8 11/26/8
f 9/27/9 16/28/9 15/29/9
f 8/30/10 9/27/10 7/16/10
f 15/29/11 19/31/11 20/32/11
f 18/33/12 13/34/12 17/25/12
f 22/20/13 11/26/13 21/18/13
f 6/35/7 36/36/7 45/37/7
f 6/35/7 45/37/7 41/38/7
f 2/39/7 40/40/7 4/41/7
f 2/39/7 37/42/7 42/43/7
f 28/44/7 13/45/7 7/23/7
f 20/46/7 34/47/7 15/48/7
f 15/48/7 31/49/7 9/21/7
f 6/35/7 41/38/7 37/42/7
f 13/45/7 33/50/7 17/51/7
f 1/3/4 3/2/4 8/52/4
f 3/2/4 19/53/4 16/54/4
f 3/2/4 16/54/4 10/55/4
f 23/56/4 5/57/4 22/58/4
f 5/57/4 1/3/4 18/11/4
f 22/58/4 5/57/4 12/59/4
f 12/59/4 5/57/4 18/11/4
f 3/2/4 10/55/4 8/52/4
f 1/3/4 8/52/4 14/10/4
f 32/60/7 21/61/7 11/62/7
f 27/63/7 42/43/7 33/50/7
f 26/64/7 46/65/7 34/47/7
f 29/22/7 28/44/7 7/23/7
f 34/47/7 44/66/7 31/49/7
f 33/50/7 30/67/7 17/51/7
f 31/49/7 40/40/7 29/22/7
f 35/68/7 24/69/7 21/61/7
f 30/67/7 11/62/7 17/51/7
f 28/44/7 38/70/7 27/63/7
f 42/43/7 38/70/7 2/39/7
f 39/71/7 29/22/7 40/40/7
f 42/43/7 30/67/7 33/50/7
f 38/70/7 39/71/7 2/39/7
f 45/37/7 25/72/7 35/68/7
f 37/42/7 32/60/7 30/67/7
f 40/40/7 44/66/7 4/41/7
f 41/38/7 35/68/7 32/60/7
f 46/65/7 43/73/7 4/41/7
f 44/66/7 46/65/7 4/41/7
f 2/1/1 4/74/1 3/2/1
f 19/6/2 3/75/2 43/76/2
f 3/75/2 4/77/2 43/76/2
f 43/76/2 26/4/2 19/6/2
f 6/7/3 2/78/3 1/8/3
f 5/14/5 23/79/5 36/12/5
f 23/79/5 24/80/5 25/81/5
f 25/81/5 36/12/5 23/79/5
f 14/15/6 8/30/6 7/16/6
f 21/18/2 24/82/2 23/19/2
f 9/21/7 31/49/7 29/22/7
f 12/24/8 18/33/8 17/25/8
f 9/27/14 10/83/14 16/28/14
f 8/30/10 10/83/10 9/27/10
f 15/29/15 16/28/15 19/31/15
f 18/33/12 14/84/12 13/34/12
f 22/20/13 12/24/13 11/26/13
f 2/39/7 39/71/7 40/40/7
f 2/39/7 6/35/7 37/42/7
f 28/44/7 27/63/7 13/45/7
f 20/46/7 26/64/7 34/47/7
f 15/48/7 34/47/7 31/49/7
f 13/45/7 27/63/7 33/50/7
f 32/60/7 35/68/7 21/61/7
f 27/63/7 38/70/7 42/43/7
f 26/64/7 43/73/7 46/65/7
f 34/47/7 46/65/7 44/66/7
f 31/49/7 44/66/7 40/40/7
f 35/68/7 25/72/7 24/69/7
f 30/67/7 32/60/7 11/62/7
f 28/44/7 39/71/7 38/70/7
f 39/71/7 28/44/7 29/22/7
f 42/43/7 37/42/7 30/67/7
f 45/37/7 36/36/7 25/72/7
f 37/42/7 41/38/7 32/60/7
f 41/38/7 45/37/7 35/68/7
