# Blender v2.80 (sub 75) OBJ File: 'patio.blend'
# www.blender.org
mtllib garbage.mtl
o Sphere
v -18.060104 0.140133 -0.295922
v -18.060104 -0.001362 -0.184451
v -18.027559 0.656155 -0.044792
v -17.952349 0.600040 -0.148299
v -17.911787 0.511508 -0.204067
v -17.885740 0.396898 -0.239737
v -17.876760 0.266831 -0.251798
v -17.885733 0.139654 -0.239256
v -17.911793 0.043995 -0.204277
v -17.952393 -0.000466 -0.149482
v -18.003500 -0.009315 -0.080593
v -18.007444 0.656145 -0.017107
v -17.885752 0.599920 -0.056633
v -17.820122 0.511022 -0.077889
v -17.777975 0.395701 -0.091385
v -17.763445 0.265180 -0.095798
v -17.777874 0.138573 -0.090916
v -17.818266 0.011698 -0.078200
v -17.885571 0.002830 -0.057947
v -17.968651 -0.007094 -0.032520
v -18.007444 0.656130 0.017114
v -17.885750 0.599768 0.056672
v -17.820120 0.510411 0.078076
v -17.777973 0.394236 0.091987
v -17.761751 0.262768 0.097566
v -17.777950 0.137458 0.092457
v -17.803768 0.000605 0.083131
v -17.885399 0.006175 0.055353
v -17.969357 -0.004340 0.026744
v -18.027559 0.656118 0.044798
v -17.952347 0.599644 0.148338
v -17.911785 0.509920 0.204254
v -17.885736 0.393065 0.240338
v -17.876757 0.261677 0.253020
v -17.885733 0.136780 0.240787
v -17.934340 0.003386 0.172304
v -17.952368 0.010363 0.146787
v -18.003571 -0.002766 0.074888
v -18.060104 0.656114 0.055373
v -18.060104 0.599600 0.183351
v -18.060104 0.509739 0.252449
v -18.060104 0.392635 0.297003
v -18.060104 0.261116 0.312605
v -18.060104 0.136558 0.297445
v -18.060104 0.023145 0.252275
v -18.060104 0.012331 0.181052
v -18.060114 -0.001806 0.091934
v -18.092649 0.656118 0.044798
v -18.167862 0.599644 0.148338
v -18.208424 0.509920 0.204254
v -18.234472 0.393065 0.240338
v -18.243452 0.261677 0.253020
v -18.234476 0.136780 0.240787
v -18.201471 0.017919 0.194385
v -18.167841 0.010363 0.146787
v -18.116648 -0.002766 0.074881
v -18.112764 0.656130 0.017114
v -18.234459 0.599768 0.056672
v -18.300089 0.510411 0.078076
v -18.342236 0.394236 0.091987
v -18.358458 0.262768 0.097566
v -18.342258 0.137458 0.092457
v -18.302492 0.001918 0.078356
v -18.234810 0.006175 0.055352
v -18.150919 -0.004348 0.026548
v -18.112764 0.656145 -0.017107
v -18.234457 0.599920 -0.056633
v -18.300087 0.511022 -0.077889
v -18.342234 0.395701 -0.091385
v -18.356764 0.265180 -0.095798
v -18.342335 0.138573 -0.090916
v -18.284060 -0.002430 -0.072819
v -18.234638 0.002830 -0.057947
v -18.151522 -0.007100 -0.032634
v -18.092649 0.656155 -0.044792
v -18.167860 0.600040 -0.148299
v -18.208422 0.511508 -0.204067
v -18.234468 0.396898 -0.239737
v -18.243448 0.266831 -0.251798
v -18.234476 0.139654 -0.239256
v -18.205832 0.028114 -0.200746
v -18.167816 -0.000466 -0.149482
v -18.116709 -0.009315 -0.080593
v -18.060104 0.656160 -0.055366
v -18.060104 0.600084 -0.183312
v -18.060104 0.511689 -0.252262
v -18.060104 0.397356 -0.296402
v -18.060104 0.267497 -0.311385
v -18.060104 0.043678 -0.252056
v -18.060104 -0.010227 -0.098962
v -18.060104 -0.005908 -0.004558
v -17.977539 0.830158 -0.113603
v -17.970131 0.830140 -0.029198
v -17.926512 0.830115 0.043447
v -18.004498 0.830095 0.076573
v -18.060104 0.830088 0.140509
v -18.060104 0.802127 0.000037
v -18.115711 0.830095 0.076573
v -18.193697 0.830115 0.043447
v -18.150078 0.830140 -0.029198
v -18.142670 0.830158 -0.113603
v -18.060104 0.830166 -0.094569
v -17.974073 0.829299 -0.118375
v -17.966352 0.829281 -0.030426
v -17.920902 0.829255 0.045269
v -18.002163 0.829234 0.079787
v -18.060104 0.829227 0.146406
v -18.118046 0.829234 0.079787
v -18.199306 0.829255 0.045269
v -18.153856 0.829281 -0.030426
v -18.146135 0.829299 -0.118375
v -18.060104 0.829308 -0.098541
v -17.999964 0.788759 -0.082737
v -17.994568 0.788747 -0.021258
v -17.962795 0.788728 0.031657
v -18.019600 0.788714 0.055785
v -18.060104 0.788709 0.102356
v -18.100609 0.788714 0.055785
v -18.157413 0.788728 0.031657
v -18.125641 0.788747 -0.021258
v -18.120245 0.788759 -0.082737
v -18.060104 0.788765 -0.068873
v -18.116806 0.664217 0.018429
v -18.098293 0.664232 -0.012395
v -18.036503 0.664205 0.032498
v -18.083706 0.664205 0.032498
v -18.060104 0.664200 0.059625
v -18.003403 0.664217 0.018429
v -18.095148 0.664243 -0.048229
v -18.060104 0.664248 -0.040140
v -18.021915 0.664232 -0.012395
v -18.025061 0.664243 -0.048229
v -18.017971 0.656155 -0.057989
v -17.991930 0.656145 -0.022148
v -17.991930 0.656130 0.022154
v -18.017971 0.656118 0.057996
v -18.060104 0.656114 0.071686
v -18.133512 0.664217 0.023857
v -18.128279 0.656130 0.022154
v -18.102238 0.656118 0.057996
v -18.128279 0.656145 -0.022148
v -18.102238 0.656155 -0.057989
v -18.060104 0.656160 -0.071679
v -18.105473 0.664205 0.062450
v -17.986696 0.664217 0.023857
v -17.986698 0.664232 -0.023846
v -18.133511 0.664232 -0.023846
v -18.014736 0.664205 0.062450
v -18.060104 0.664200 0.077191
v -18.105473 0.664243 -0.062439
v -18.060104 0.664248 -0.077180
v -18.014736 0.664243 -0.062439
vt 1.000000 0.900000
vt 0.900000 0.900000
vt 0.900000 0.900000
vt 0.700000 0.300000
vt 0.600000 0.200000
vt 0.700000 0.200000
vt 0.700000 0.500000
vt 0.600000 0.600000
vt 0.600000 0.500000
vt 0.700000 0.800000
vt 0.600000 0.900000
vt 0.600000 0.800000
vt 0.600000 0.100000
vt 0.700000 0.100000
vt 0.700000 0.400000
vt 0.600000 0.400000
vt 0.700000 0.700000
vt 0.600000 0.700000
vt 0.650000 0.000000
vt 0.600000 0.300000
vt 0.700000 0.600000
vt 0.500000 0.200000
vt 0.500000 0.600000
vt 0.500000 0.500000
vt 0.500000 0.900000
vt 0.500000 0.800000
vt 0.500000 0.100000
vt 0.500000 0.400000
vt 0.500000 0.700000
vt 0.550000 0.000000
vt 0.500000 0.300000
vt 0.400000 0.900000
vt 0.300000 0.900000
vt 0.300000 0.900000
vt 0.400000 0.700000
vt 0.400000 0.600000
vt 0.000000 0.900000
vt 0.100000 0.900000
vt 0.000000 0.900000
vt 0.400000 0.200000
vt 0.400000 0.500000
vt 0.400000 0.900000
vt 0.400000 0.800000
vt 0.400000 0.100000
vt 0.400000 0.400000
vt 0.450000 0.000000
vt 0.400000 0.300000
vt 0.300000 0.400000
vt 0.300000 0.244445
vt 0.300000 0.700000
vt 0.300000 0.600000
vt 0.800000 0.900000
vt 0.800000 0.900000
vt 0.300000 0.200000
vt 0.300000 0.500000
vt 0.300000 0.900000
vt 0.300000 0.800000
vt 0.300000 0.100000
vt 0.350000 0.000000
vt 0.200000 0.800000
vt 0.200000 0.700000
vt 0.250000 0.000000
vt 0.200000 0.100000
vt 0.200000 0.300000
vt 0.200000 0.600000
vt 0.200000 0.900000
vt 0.200000 0.900000
vt 0.200000 0.200000
vt 0.200000 0.500000
vt 0.200000 0.900000
vt 0.200000 0.400000
vt 0.100000 0.100000
vt 0.100000 0.400000
vt 0.100000 0.700000
vt 0.150000 0.000000
vt 0.100000 0.282905
vt 0.100000 0.600000
vt 0.100000 0.900000
vt 0.100000 0.200000
vt 0.100000 0.500000
vt 0.100000 0.800000
vt 0.000000 0.500000
vt 0.100000 0.900000
vt 0.000000 0.800000
vt 0.000000 0.200000
vt 0.000000 0.100000
vt 0.000000 0.400000
vt 0.000000 0.700000
vt 0.050000 0.000000
vt 0.000000 0.282905
vt 0.000000 0.600000
vt 0.500000 0.900000
vt 0.400000 0.900000
vt 0.700000 0.900000
vt 0.700000 0.900000
vt 1.000000 0.200000
vt 0.900000 0.273430
vt 0.900000 0.200000
vt 1.000000 0.600000
vt 0.900000 0.500000
vt 1.000000 0.500000
vt 1.000000 0.900000
vt 0.900000 0.800000
vt 1.000000 0.800000
vt 1.000000 0.100000
vt 0.900000 0.100000
vt 0.900000 0.400000
vt 1.000000 0.400000
vt 0.900000 0.700000
vt 1.000000 0.700000
vt 0.950000 0.000000
vt 1.000000 0.282905
vt 0.900000 0.600000
vt 0.800000 0.600000
vt 0.600000 0.900000
vt 0.600000 0.900000
vt 0.800000 0.200000
vt 0.800000 0.500000
vt 0.900000 0.900000
vt 0.800000 0.800000
vt 0.800000 0.100000
vt 0.800000 0.400000
vt 0.800000 0.700000
vt 0.850000 0.000000
vt 0.800000 0.301607
vt 0.750000 0.000000
vt 0.500000 0.900000
vt 0.800000 0.900000
vt 0.696737 0.906526
vt 0.650000 1.000000
vt 0.603263 0.906526
vt 0.550000 1.000000
vt 0.496737 0.906526
vt 0.450000 1.000000
vt 0.396737 0.906526
vt 0.350000 1.000000
vt 0.296737 0.906525
vt 0.250000 1.000000
vt 0.196737 0.906525
vt 0.150000 1.000000
vt 0.096737 0.906525
vt 0.050000 1.000000
vt 0.003263 0.906526
vt 0.996737 0.906526
vt 0.950000 1.000000
vt 0.896737 0.906526
vt 0.850000 1.000000
vt 0.796737 0.906526
vt 0.750000 1.000000
vt 0.602017 0.904034
vt 0.397983 0.904034
vt 0.497983 0.904034
vt 0.197983 0.904034
vt 0.297983 0.904034
vt 0.002017 0.904034
vt 0.097983 0.904034
vt 0.997983 0.904034
vt 1.000000 0.900000
vt 0.797983 0.904034
vt 0.897983 0.904034
vt 0.697983 0.904034
vt 0.700000 0.900000
vt 0.800000 0.900000
vt 1.000000 0.900000
vt 0.900000 0.900000
vt 0.900000 0.900000
vt 1.000000 0.900000
vt 0.300000 0.900000
vt 0.400000 0.900000
vt 0.300000 0.900000
vt 0.200000 0.900000
vt 0.500000 0.900000
vt 0.600000 0.900000
vt 0.500000 0.900000
vt 0.700000 0.900000
vt 0.800000 0.900000
vt 0.700000 0.900000
vt 0.100000 0.900000
vt 0.600000 0.900000
vt 0.400000 0.900000
vt 0.100000 0.900000
vt 0.200000 0.900000
vt 0.000000 0.900000
vt 0.000000 0.900000
vt 0.000000 0.900000
vn -0.8104 -0.3260 -0.4868
vn -0.8965 -0.3336 -0.2914
vn -0.8965 -0.3336 -0.2915
vn 0.0147 -0.6148 -0.7885
vn 0.2315 -0.9275 -0.2935
vn 0.0212 -0.9301 -0.3667
vn -0.0000 -0.0027 -1.0000
vn 0.5722 0.2336 -0.7862
vn 0.5879 -0.0026 -0.8090
vn 0.0000 0.7665 -0.6423
vn 0.2363 0.9158 -0.3248
vn 0.3782 0.7662 -0.5196
vn 0.0490 -0.9985 -0.0239
vn 0.0000 -0.9990 -0.0436
vn -0.0001 -0.2626 -0.9649
vn 0.5665 -0.2631 -0.7809
vn 0.0000 0.4809 -0.8768
vn 0.5162 0.4804 -0.7090
vn 0.0000 -0.9991 0.0433
vn 0.4419 -0.6226 -0.6458
vn -0.0000 0.2338 -0.9723
vn 0.1383 -0.9869 -0.0831
vn 0.9253 0.2332 -0.2992
vn 0.9501 -0.0007 -0.3118
vn 0.3826 0.9156 -0.1238
vn 0.6124 0.7654 -0.1979
vn 0.0738 -0.9971 0.0202
vn 0.9228 -0.2256 -0.3124
vn 0.8353 0.4790 -0.2698
vn 0.7300 -0.2942 -0.6169
vn 0.3698 -0.3263 0.8699
vn 0.5541 -0.3339 0.7626
vn 0.5542 -0.3338 0.7625
vn 0.8352 0.4775 0.2730
vn 0.9237 0.2381 0.3000
vn -0.3698 -0.3262 0.8699
vn -0.5541 -0.3338 0.7626
vn -0.3696 -0.3263 0.8700
vn 0.0546 -0.9887 -0.1394
vn 0.0193 -0.9998 -0.0013
vn 0.9510 -0.0025 0.3093
vn 0.3830 0.9152 0.1251
vn 0.6128 0.7644 0.2003
vn 0.0649 -0.9963 0.0565
vn 0.9395 -0.1765 0.2935
vn 0.9666 -0.2526 -0.0422
vn 0.9789 -0.1779 -0.1002
vn 0.6688 -0.3542 0.6536
vn 0.5517 -0.2702 0.7891
vn 0.4335 -0.5316 0.7277
vn 0.5160 0.4763 0.7119
vn 0.5697 0.2341 0.7878
vn -0.9417 -0.3261 -0.0828
vn -0.9417 -0.3261 -0.0827
vn -0.1183 -0.9888 -0.0905
vn -0.0656 -0.9970 -0.0422
vn 0.5853 -0.0028 0.8108
vn 0.2369 0.9149 0.3267
vn 0.3789 0.7636 0.5228
vn 0.0377 -0.9947 0.0955
vn -0.0000 0.7633 0.6460
vn -0.0000 0.4759 0.8795
vn -0.0000 -0.9939 0.1104
vn 0.0322 -0.4326 0.9010
vn 0.0000 0.2329 0.9725
vn 0.7132 -0.3262 0.6204
vn 0.7133 -0.3262 0.6203
vn -0.0265 -0.9900 0.1387
vn 0.0000 -0.0016 1.0000
vn -0.0000 0.9148 0.4038
vn -0.0000 -0.2417 0.9704
vn -0.0378 -0.9947 0.0955
vn -0.5720 -0.2654 0.7761
vn -0.5160 0.4764 0.7119
vn -0.5525 -0.3997 0.7314
vn -0.5697 0.2341 0.7878
vn -0.7132 -0.3262 0.6204
vn -0.5542 -0.3338 0.7625
vn -0.0225 -0.9930 0.1161
vn -0.0564 -0.9903 0.1267
vn -0.5853 -0.0028 0.8108
vn -0.3789 0.7636 0.5228
vn -0.9510 -0.0025 0.3093
vn -0.2369 0.9149 0.3267
vn -0.6128 0.7644 0.2003
vn -0.0024 -0.9982 0.0602
vn -0.0650 -0.9963 0.0564
vn -0.9215 -0.2266 0.3155
vn -0.8352 0.4775 0.2730
vn -0.7060 -0.2750 0.6526
vn -0.9237 0.2381 0.3000
vn 0.8104 -0.3260 -0.4868
vn 0.8965 -0.3336 -0.2914
vn 0.8104 -0.3260 -0.4867
vn 0.2126 -0.3259 -0.9212
vn -0.0000 -0.3335 -0.9427
vn 0.0339 -0.9993 -0.0144
vn 0.0067 -0.9993 0.0362
vn -0.9501 -0.0007 -0.3118
vn -0.3830 0.9152 0.1251
vn -0.6124 0.7654 -0.1979
vn -0.0738 -0.9971 0.0201
vn -0.9180 -0.2439 -0.3126
vn -0.8353 0.4790 -0.2698
vn -0.9426 -0.3307 -0.0451
vn -0.8591 -0.3966 -0.3234
vn -0.9252 0.2332 -0.2992
vn -0.5722 0.2336 -0.7862
vn -0.2126 -0.3259 -0.9212
vn -0.2124 -0.3259 -0.9212
vn -0.1216 -0.9652 -0.2314
vn -0.5879 -0.0026 -0.8090
vn -0.3826 0.9156 -0.1238
vn -0.3782 0.7662 -0.5195
vn -0.0490 -0.9985 -0.0239
vn -0.5662 -0.2554 -0.7837
vn -0.5162 0.4804 -0.7090
vn -0.4160 -0.6491 -0.6369
vn 0.9417 -0.3261 -0.0828
vn 0.8965 -0.3336 -0.2915
vn -0.2363 0.9158 -0.3247
vn 0.0000 0.9817 -0.1904
vn -0.0000 1.0000 0.0003
vn 0.0763 0.9916 -0.1047
vn 0.1814 0.9817 -0.0587
vn 0.1234 0.9915 0.0405
vn 0.1122 0.9816 0.1547
vn 0.0000 0.9915 0.1300
vn -0.1122 0.9816 0.1547
vn -0.1234 0.9915 0.0405
vn -0.1814 0.9817 -0.0587
vn -0.0763 0.9916 -0.1047
vn 0.0848 0.9896 -0.1164
vn 0.2011 0.9774 -0.0650
vn 0.1371 0.9895 0.0450
vn 0.1244 0.9773 0.1715
vn -0.0001 0.9895 0.1445
vn -0.1244 0.9773 0.1715
vn -0.1370 0.9895 0.0450
vn -0.2011 0.9774 -0.0650
vn -0.0848 0.9896 -0.1164
vn 0.0000 0.9775 -0.2111
vn -0.8524 0.5175 0.0749
vn -0.8080 0.5274 0.2626
vn -0.7335 0.5175 0.4406
vn -0.8080 0.5274 0.2627
vn -0.3346 0.5177 -0.7874
vn -0.4994 0.5275 -0.6873
vn -0.6456 0.5177 -0.5614
vn -0.4994 0.5275 -0.6872
vn 0.6456 0.5177 -0.5614
vn 0.4994 0.5275 -0.6873
vn 0.3346 0.5177 -0.7874
vn 0.4994 0.5275 -0.6872
vn 0.7335 0.5175 0.4406
vn 0.8080 0.5274 0.2626
vn 0.8524 0.5175 0.0749
vn 0.8080 0.5274 0.2627
vn -0.1923 0.5175 0.8338
vn 0.0000 0.5274 0.8496
vn 0.1923 0.5175 0.8338
vn -0.0001 1.0000 0.0001
vn 0.0000 1.0000 0.0000
vn 0.0001 -1.0000 -0.0003
vn -0.0001 -1.0000 -0.0003
vn 0.0001 1.0000 0.0003
vn -0.0001 1.0000 0.0003
vn 0.0001 1.0000 0.0001
vn -0.0002 1.0000 0.0001
vn 0.0000 -1.0000 -0.0000
vn 0.0002 -1.0000 -0.0001
vn -0.0001 -1.0000 -0.0001
vn 0.0002 1.0000 0.0001
vn 0.7864 -0.5623 -0.2557
vn 0.4859 -0.5625 -0.6690
vn 0.0000 -0.5624 -0.8269
vn -0.4859 -0.5625 -0.6690
vn 0.0000 -0.5623 -0.8269
vn 0.7863 -0.5627 0.2552
vn 0.0000 -0.5627 0.8266
vn -0.4860 -0.5627 0.6687
vn -0.4860 -0.5628 0.6687
vn 0.4860 -0.5627 0.6687
vn -0.7864 -0.5624 -0.2556
vn -0.7863 -0.5626 0.2553
vn -0.7864 -0.5624 -0.2557
vn -0.0002 -1.0000 -0.0001
vn 0.0001 1.0000 0.0004
vn 0.0001 -1.0000 -0.0001
vn -0.0001 1.0000 0.0004
vn -0.8104 -0.3260 -0.4867
vn 0.0000 0.9159 -0.4014
vn 0.3696 -0.3263 0.8700
vn -0.0490 -0.9972 -0.0561
vn -0.0408 -0.9878 0.1500
vn -0.7133 -0.3262 0.6203
vn 0.0800 -0.9955 0.0511
vn 0.2124 -0.3259 -0.9212
vn 0.9417 -0.3261 -0.0827
vn -0.6456 0.5176 -0.5615
usemtl Material.005
s 1
f 123/1/1 110/2/2 124/3/3
f 89/4/4 10/5/5 2/6/6
f 88/7/7 6/8/8 7/9/9
f 85/10/10 3/11/11 4/12/12
f 2/6/6 11/13/13 90/14/14
f 1/15/15 7/9/9 8/16/16
f 86/17/17 4/12/12 5/18/18
f 91/19/19 90/14/14 11/13/13
f 1/15/15 9/20/20 89/4/4
f 87/21/21 5/18/18 6/8/8
f 9/20/20 19/22/22 10/5/5
f 7/9/9 15/23/23 16/24/24
f 4/12/12 12/25/25 13/26/26
f 10/5/5 20/27/27 11/13/13
f 8/16/16 16/24/24 17/28/28
f 5/18/18 13/26/26 14/29/29
f 91/30/19 11/13/13 20/27/27
f 9/20/20 17/28/28 18/31/30
f 6/8/8 14/29/29 15/23/23
f 128/32/31 106/33/32 125/34/33
f 15/23/23 23/35/34 24/36/35
f 123/37/36 108/38/37 109/39/38
f 18/31/39 28/40/40 19/22/22
f 16/24/24 24/36/35 25/41/41
f 13/26/26 21/42/42 22/43/43
f 19/22/22 29/44/44 20/27/27
f 17/28/28 25/41/41 26/45/45
f 14/29/29 22/43/43 23/35/34
f 91/46/19 20/27/27 29/44/44
f 18/31/46 26/45/45 27/47/47
f 27/47/48 35/48/49 36/49/50
f 24/36/35 32/50/51 33/51/52
f 129/52/53 110/2/2 111/53/54
f 28/40/40 36/49/55 37/54/56
f 25/41/41 33/51/52 34/55/57
f 22/43/43 30/56/58 31/57/59
f 28/40/40 38/58/60 29/44/44
f 26/45/45 34/55/57 35/48/49
f 23/35/34 31/57/59 32/50/51
f 91/59/19 29/44/44 38/58/60
f 32/50/51 40/60/61 41/61/62
f 91/62/19 38/58/60 47/63/63
f 35/48/49 45/64/64 36/49/50
f 33/51/52 41/61/62 42/65/65
f 127/66/66 106/33/32 107/67/67
f 36/49/55 46/68/68 37/54/56
f 34/55/57 42/65/65 43/69/69
f 31/57/59 39/70/70 40/60/61
f 38/58/60 46/68/68 47/63/63
f 35/48/49 43/69/69 44/71/71
f 46/68/68 56/72/72 47/63/63
f 43/69/69 53/73/73 44/71/71
f 40/60/61 50/74/74 41/61/62
f 91/75/19 47/63/63 56/72/72
f 45/64/64 53/73/73 54/76/75
f 41/61/62 51/77/76 42/65/65
f 127/66/77 108/38/37 126/78/78
f 46/68/68 54/76/79 55/79/80
f 42/65/65 52/80/81 43/69/69
f 39/70/70 49/81/82 40/60/61
f 51/77/76 61/82/83 52/80/81
f 48/83/84 58/84/85 49/81/82
f 56/72/72 64/85/86 65/86/87
f 52/80/81 62/87/88 53/73/73
f 49/81/82 59/88/89 50/74/74
f 91/89/19 56/72/72 65/86/87
f 54/76/75 62/87/88 63/90/90
f 50/74/74 60/91/91 51/77/76
f 128/32/92 104/92/93 105/93/94
f 54/76/79 64/85/86 55/79/80
f 129/52/95 112/94/96 130/95/96
f 64/96/86 72/97/97 73/98/98
f 60/99/91 70/100/99 61/101/83
f 57/102/100 67/103/101 58/104/85
f 65/105/87 73/98/98 74/106/102
f 61/101/83 71/107/103 62/108/88
f 58/104/85 68/109/104 59/110/89
f 91/111/19 65/105/87 74/106/102
f 63/112/105 71/107/103 72/97/106
f 59/110/89 69/113/107 60/99/91
f 68/109/104 78/114/108 69/113/107
f 132/115/109 112/94/96 103/116/110
f 72/97/97 82/117/111 73/98/98
f 69/113/107 79/118/112 70/100/99
f 66/119/113 76/120/114 67/103/101
f 74/106/102 82/117/111 83/121/115
f 70/100/99 80/122/116 71/107/103
f 67/103/101 77/123/117 68/109/104
f 91/124/19 74/106/102 83/121/115
f 71/107/103 81/125/118 72/97/106
f 91/126/19 83/121/115 90/14/14
f 80/122/116 89/4/4 81/125/118
f 77/123/117 87/21/21 78/114/108
f 132/115/119 104/92/93 131/127/120
f 81/125/118 2/6/6 82/117/111
f 78/114/108 88/7/7 79/118/112
f 75/128/121 85/10/10 76/120/114
f 83/121/115 2/6/6 90/14/14
f 79/118/112 1/15/15 80/122/116
f 76/120/114 86/17/17 77/123/117
f 122/129/122 97/130/123 113/131/124
f 113/131/124 97/132/123 114/133/125
f 114/133/125 97/134/123 115/135/126
f 115/135/126 97/136/123 116/137/127
f 116/137/127 97/138/123 117/139/128
f 117/139/128 97/140/123 118/141/129
f 118/141/129 97/142/123 119/143/130
f 119/144/130 97/145/123 120/146/131
f 120/146/131 97/147/123 121/148/132
f 121/148/132 97/149/123 122/129/122
f 92/150/133 104/92/134 103/116/133
f 94/151/135 104/92/134 93/152/134
f 94/151/135 106/33/136 105/93/135
f 96/153/137 106/33/136 95/154/136
f 96/153/137 108/38/138 107/67/137
f 99/155/139 108/38/138 98/156/138
f 99/157/139 110/2/140 109/158/139
f 101/159/141 110/2/140 100/160/140
f 101/159/141 112/94/142 111/53/141
f 92/150/133 112/94/142 102/161/142
f 113/131/143 93/152/144 92/150/143
f 115/135/145 93/152/144 114/133/146
f 115/135/147 95/154/148 94/151/147
f 117/139/149 95/154/148 116/137/150
f 117/139/151 98/156/152 96/153/151
f 119/143/153 98/156/152 118/141/154
f 119/144/155 100/160/156 99/157/155
f 121/148/157 100/160/156 120/146/158
f 121/148/159 102/161/160 101/159/159
f 113/131/161 102/161/160 122/129/160
f 129/52/162 151/162/163 150/163/162
f 66/119/164 139/164/165 141/165/164
f 123/1/166 147/166/167 138/167/166
f 132/115/168 151/162/163 130/95/163
f 128/32/167 148/168/169 145/169/167
f 39/70/170 136/170/171 137/171/170
f 132/115/168 146/172/166 152/173/168
f 3/11/172 134/174/165 12/25/165
f 84/175/170 142/176/171 143/177/170
f 123/37/166 144/178/173 126/78/173
f 134/174/174 152/173/175 146/172/174
f 133/179/175 151/162/176 152/173/175
f 142/176/177 151/162/176 143/177/178
f 135/180/179 146/172/174 145/169/179
f 137/171/180 144/178/181 140/181/182
f 137/171/180 148/168/183 149/182/180
f 141/165/184 150/163/177 142/176/177
f 140/181/182 138/183/185 139/184/185
f 136/170/183 145/169/179 148/168/183
f 139/164/185 147/166/186 141/165/184
f 84/175/170 133/179/187 3/11/172
f 57/185/165 140/181/187 139/184/165
f 128/32/167 146/172/166 131/127/188
f 21/42/164 136/170/171 30/56/171
f 127/66/163 144/178/173 149/182/163
f 127/66/163 148/168/169 125/34/169
f 39/70/170 140/181/187 48/83/187
f 75/128/189 141/165/164 142/176/171
f 129/52/162 147/166/167 124/3/190
f 12/25/165 135/180/164 21/42/164
f 123/1/1 109/158/191 110/2/2
f 89/4/4 9/20/20 10/5/5
f 88/7/7 87/21/21 6/8/8
f 85/10/10 84/175/192 3/11/11
f 2/6/6 10/5/5 11/13/13
f 1/15/15 88/7/7 7/9/9
f 86/17/17 85/10/10 4/12/12
f 1/15/15 8/16/16 9/20/20
f 87/21/21 86/17/17 5/18/18
f 9/20/20 18/31/39 19/22/22
f 7/9/9 6/8/8 15/23/23
f 4/12/12 3/11/11 12/25/25
f 10/5/5 19/22/22 20/27/27
f 8/16/16 7/9/9 16/24/24
f 5/18/18 4/12/12 13/26/26
f 9/20/20 8/16/16 17/28/28
f 6/8/8 5/18/18 14/29/29
f 128/32/31 105/93/193 106/33/32
f 15/23/23 14/29/29 23/35/34
f 123/37/36 126/78/78 108/38/37
f 18/31/39 27/47/194 28/40/40
f 16/24/24 15/23/23 24/36/35
f 13/26/26 12/25/25 21/42/42
f 19/22/22 28/40/40 29/44/44
f 17/28/28 16/24/24 25/41/41
f 14/29/29 13/26/26 22/43/43
f 18/31/46 17/28/28 26/45/45
f 27/47/48 26/45/45 35/48/49
f 24/36/35 23/35/34 32/50/51
f 129/52/53 124/3/3 110/2/2
f 28/40/40 27/47/194 36/49/55
f 25/41/41 24/36/35 33/51/52
f 22/43/43 21/42/42 30/56/58
f 28/40/40 37/54/56 38/58/60
f 26/45/45 25/41/41 34/55/57
f 23/35/34 22/43/43 31/57/59
f 32/50/51 31/57/59 40/60/61
f 35/48/49 44/71/71 45/64/64
f 33/51/52 32/50/51 41/61/62
f 127/66/66 125/34/33 106/33/32
f 36/49/55 45/64/195 46/68/68
f 34/55/57 33/51/52 42/65/65
f 31/57/59 30/56/58 39/70/70
f 38/58/60 37/54/56 46/68/68
f 35/48/49 34/55/57 43/69/69
f 46/68/68 55/79/80 56/72/72
f 43/69/69 52/80/81 53/73/73
f 40/60/61 49/81/82 50/74/74
f 45/64/64 44/71/71 53/73/73
f 41/61/62 50/74/74 51/77/76
f 127/66/77 107/67/196 108/38/37
f 46/68/68 45/64/195 54/76/79
f 42/65/65 51/77/76 52/80/81
f 39/70/70 48/83/84 49/81/82
f 51/77/76 60/91/91 61/82/83
f 48/83/84 57/185/100 58/84/85
f 56/72/72 55/79/80 64/85/86
f 52/80/81 61/82/83 62/87/88
f 49/81/82 58/84/85 59/88/89
f 54/76/75 53/73/73 62/87/88
f 50/74/74 59/88/89 60/91/91
f 128/32/92 131/127/120 104/92/93
f 54/76/79 63/90/197 64/85/86
f 129/52/95 111/53/198 112/94/96
f 64/96/86 63/112/197 72/97/97
f 60/99/91 69/113/107 70/100/99
f 57/102/100 66/119/113 67/103/101
f 65/105/87 64/96/86 73/98/98
f 61/101/83 70/100/99 71/107/103
f 58/104/85 67/103/101 68/109/104
f 63/112/105 62/108/88 71/107/103
f 59/110/89 68/109/104 69/113/107
f 68/109/104 77/123/117 78/114/108
f 132/115/109 130/95/96 112/94/96
f 72/97/97 81/125/118 82/117/111
f 69/113/107 78/114/108 79/118/112
f 66/119/113 75/128/121 76/120/114
f 74/106/102 73/98/98 82/117/111
f 70/100/99 79/118/112 80/122/116
f 67/103/101 76/120/114 77/123/117
f 71/107/103 80/122/116 81/125/118
f 80/122/116 1/15/15 89/4/4
f 77/123/117 86/17/17 87/21/21
f 132/115/119 103/116/199 104/92/93
f 81/125/118 89/4/4 2/6/6
f 78/114/108 87/21/21 88/7/7
f 75/128/121 84/175/192 85/10/10
f 83/121/115 82/117/111 2/6/6
f 79/118/112 88/7/7 1/15/15
f 76/120/114 85/10/10 86/17/17
f 92/150/133 93/152/134 104/92/134
f 94/151/135 105/93/135 104/92/134
f 94/151/135 95/154/136 106/33/136
f 96/153/137 107/67/137 106/33/136
f 96/153/137 98/156/138 108/38/138
f 99/155/139 109/39/139 108/38/138
f 99/157/139 100/160/140 110/2/140
f 101/159/141 111/53/141 110/2/140
f 101/159/141 102/161/142 112/94/142
f 92/150/133 103/116/133 112/94/142
f 113/131/143 114/133/146 93/152/144
f 115/135/145 94/151/145 93/152/144
f 115/135/147 116/137/150 95/154/148
f 117/139/149 96/153/200 95/154/148
f 117/139/151 118/141/154 98/156/152
f 119/143/153 99/155/153 98/156/152
f 119/144/155 120/146/158 100/160/156
f 121/148/157 101/159/157 100/160/156
f 121/148/159 122/129/160 102/161/160
f 113/131/161 92/150/161 102/161/160
f 129/52/162 130/95/163 151/162/163
f 66/119/164 57/102/165 139/164/165
f 123/1/166 124/3/190 147/166/167
f 132/115/168 152/173/168 151/162/163
f 128/32/167 125/34/169 148/168/169
f 39/70/170 30/56/171 136/170/171
f 132/115/168 131/127/188 146/172/166
f 3/11/172 133/179/187 134/174/165
f 84/175/170 75/128/189 142/176/171
f 123/37/166 138/183/166 144/178/173
f 134/174/174 133/179/175 152/173/175
f 133/179/175 143/177/178 151/162/176
f 142/176/177 150/163/177 151/162/176
f 135/180/179 134/174/174 146/172/174
f 137/171/180 149/182/180 144/178/181
f 137/171/180 136/170/183 148/168/183
f 141/165/184 147/166/186 150/163/177
f 140/181/182 144/178/181 138/183/185
f 136/170/183 135/180/179 145/169/179
f 139/164/185 138/167/185 147/166/186
f 84/175/170 143/177/170 133/179/187
f 57/185/165 48/83/187 140/181/187
f 128/32/167 145/169/167 146/172/166
f 21/42/164 135/180/164 136/170/171
f 127/66/163 126/78/173 144/178/173
f 127/66/163 149/182/163 148/168/169
f 39/70/170 137/171/170 140/181/187
f 75/128/189 66/119/164 141/165/164
f 129/52/162 150/163/162 147/166/167
f 12/25/165 134/174/165 135/180/164
