# Blender v2.80 (sub 75) OBJ File: 'grass.blend'
# www.blender.org
mtllib grass.mtl
o Plane.002
v 0.860746 0.514494 -0.413159
v 0.359735 0.849834 -0.791890
v -0.860746 0.479967 -0.409970
v -0.407595 0.849834 -0.791890
v -0.377568 -0.849834 -0.178317
v -0.860746 -0.419729 -0.218038
v 0.322075 -0.849834 -0.178317
v 0.860746 -0.298884 -0.229199
v 0.860746 0.512655 -0.433074
v 0.359735 0.847995 -0.811805
v -0.860746 0.478128 -0.429886
v -0.407595 0.847995 -0.811805
v -0.377568 -0.851673 -0.198232
v -0.860746 -0.421568 -0.237954
v 0.322075 -0.851673 -0.198232
v 0.860746 -0.300723 -0.249114
v 0.394608 -0.828372 0.035870
v 0.005857 -0.258896 0.194078
v 0.967885 -0.813622 -0.049111
v 1.341313 -0.154484 0.008272
v 1.341313 0.201163 0.070001
v 0.005857 0.630220 0.242518
v 0.486548 1.144531 0.364268
v 0.160754 0.985864 0.386478
v 0.930028 1.155941 0.298528
v 1.227242 1.011140 0.122124
v 0.391632 -0.824990 0.016384
v 0.002881 -0.255514 0.174592
v 0.964910 -0.810240 -0.068597
v 1.338337 -0.151102 -0.011214
v 1.338337 0.204545 0.050515
v 0.002882 0.633602 0.223032
v 0.483573 1.147913 0.344782
v 0.157778 0.989246 0.366992
v 0.927052 1.159324 0.279041
v 1.224266 1.014522 0.102638
v -0.372765 -0.865739 0.015561
v -0.777081 1.087727 0.601779
v -0.288033 0.557859 0.204571
v -0.165300 0.076618 0.085908
v -0.684811 -0.934459 0.010430
v -1.166176 1.002038 0.595383
v -1.156633 0.064961 0.167775
v -1.006856 -0.337714 0.054978
v -0.372765 -0.864250 -0.004384
v -0.777081 1.089216 0.581835
v -0.288033 0.559348 0.184626
v -0.165300 0.078107 0.065963
v -0.684811 -0.932970 -0.009514
v -1.166176 1.003527 0.575438
v -1.156633 0.066450 0.147831
v -1.006856 -0.336225 0.035034
vt 0.000000 0.253052
vt 0.280674 0.000000
vt 0.687091 0.000000
vt 1.000000 0.324152
vt 1.000000 0.802702
vt 0.000000 0.782389
vt 0.000000 0.253052
vt 0.000000 0.782389
vt 1.000000 0.802702
vt 1.000000 0.324152
vt 0.687091 0.000000
vt 0.280674 0.000000
vt 0.708967 1.000000
vt 0.708967 1.000000
vt 0.263231 1.000000
vt 0.263231 1.000000
vt 0.000000 0.294071
vt 0.291100 0.000000
vt 0.720375 0.000000
vt 1.000000 0.329621
vt 1.000000 0.510103
vt 0.914583 0.922636
vt 0.000000 0.745276
vt 0.000000 0.294071
vt 0.000000 0.745276
vt 0.914583 0.922636
vt 1.000000 0.510103
vt 1.000000 0.329621
vt 0.720375 0.000000
vt 0.291100 0.000000
vt 0.359946 1.000000
vt 0.692026 1.000000
vt 0.692026 1.000000
vt 0.359946 1.000000
vt 0.115988 0.923734
vt 0.115988 0.923734
vt 0.353472 1.000000
vt 0.219478 0.540183
vt 0.881245 0.687850
vt 0.629665 1.000000
vt 0.353472 1.000000
vt 0.629665 1.000000
vt 0.881245 0.687850
vt 0.219478 0.540183
vt 0.610523 0.000000
vt 0.389022 0.000000
vt 0.389022 0.000000
vt 0.610523 0.000000
vt 0.892184 0.439004
vt 0.892184 0.439004
vt 0.260497 0.326886
vt 0.260497 0.326886
vn -0.0040 0.1800 0.9837
vn -0.0061 0.3867 0.9222
vn -0.0061 0.3906 0.9205
vn 0.0040 -0.1800 -0.9837
vn 0.0061 -0.3906 -0.9205
vn 0.0061 -0.3867 -0.9222
vn 1.0000 0.0000 0.0000
vn 0.3550 0.9309 -0.0860
vn 0.5928 0.8020 -0.0741
vn 0.2513 0.9638 -0.0890
vn -0.4056 0.9102 -0.0841
vn -0.2846 0.9546 -0.0882
vn -0.6649 0.7437 -0.0687
vn -1.0000 0.0000 0.0000
vn -0.3567 -0.9303 0.0859
vn -0.6665 -0.7424 0.0686
vn 0.0000 -0.9958 0.0920
vn 0.7165 -0.6946 0.0642
vn 0.1279 -0.1022 0.9865
vn 0.1629 -0.2344 0.9584
vn 0.1603 -0.2243 0.9612
vn -0.1279 0.1022 -0.9865
vn -0.1603 0.2243 -0.9612
vn -0.1629 0.2344 -0.9584
vn -0.9453 -0.3135 0.0899
vn -0.9700 0.1664 0.1770
vn -0.9728 0.1516 0.1749
vn -0.9518 -0.2917 0.0947
vn -0.8221 -0.5687 0.0268
vn -0.0000 -0.9853 -0.1710
vn 0.9556 -0.2288 -0.1856
vn 0.8581 -0.4677 -0.2122
vn 0.9872 0.0835 -0.1363
vn 0.9869 0.0883 -0.1354
vn -0.2127 0.9567 0.1985
vn 0.2209 0.9660 0.1340
vn 0.2647 0.9561 0.1255
vn -0.9255 0.3232 0.1974
vn -0.4155 0.8834 0.2168
vn 0.9814 0.1462 -0.1245
vn 0.4744 0.8767 0.0797
vn 0.1712 -0.4380 0.8825
vn 0.0929 -0.2661 0.9595
vn 0.1098 -0.3035 0.9465
vn -0.1712 0.4380 -0.8825
vn -0.1098 0.3035 -0.9465
vn -0.0929 0.2661 -0.9595
vn 0.2156 -0.9738 -0.0727
vn 0.7520 0.6573 0.0491
vn 0.8649 0.5005 0.0374
vn 0.9084 0.4169 0.0311
vn 0.9996 0.0264 0.0020
vn 1.0000 0.0021 0.0002
vn 0.9767 -0.2138 -0.0160
vn -0.2156 0.9738 0.0727
vn -0.9885 -0.1510 -0.0113
vn -1.0000 -0.0098 -0.0007
vn -0.9778 -0.2091 -0.0156
vn -0.9139 -0.4048 -0.0302
vn -0.9104 -0.4126 -0.0308
vn -0.8806 -0.4726 -0.0353
vn 0.0413 -0.1516 0.9876
vn -0.0413 0.1516 -0.9876
vn 0.2157 -0.4522 0.8654
vn -0.2157 0.4522 -0.8654
vn 0.0093 -0.7330 -0.6802
vn -0.0093 0.7330 0.6802
usemtl Material.001
s 1
f 6/1/1 5/2/1 7/3/1 8/4/1 1/5/2 3/6/3
f 14/7/4 11/8/5 9/9/6 16/10/4 15/11/4 13/12/4
f 1/5/7 8/4/7 16/10/7 9/9/7
f 2/13/8 1/5/9 9/9/9 10/14/10
f 4/15/11 2/13/8 10/14/10 12/16/12
f 3/6/13 4/15/11 12/16/12 11/8/13
f 6/1/14 3/6/14 11/8/14 14/7/14
f 5/2/15 6/1/16 14/7/16 13/12/15
f 7/3/17 5/2/15 13/12/15 15/11/17
f 8/4/18 7/3/18 15/11/18 16/10/18
f 18/17/19 17/18/19 19/19/19 20/20/19 21/21/19 26/22/20 22/23/21
f 28/24/22 32/25/23 36/26/24 31/27/22 30/28/22 29/29/22 27/30/22
f 18/17/25 22/23/26 32/25/27 28/24/28
f 17/18/29 18/17/25 28/24/28 27/30/29
f 19/19/30 17/18/30 27/30/30 29/29/30
f 20/20/31 19/19/32 29/29/32 30/28/31
f 21/21/33 20/20/31 30/28/31 31/27/34
f 23/31/35 25/32/36 35/33/37 33/34/35
f 22/23/26 24/35/38 34/36/38 32/25/27
f 24/35/39 23/31/35 33/34/35 34/36/39
f 26/22/40 21/21/33 31/27/34 36/26/40
f 25/32/36 26/22/41 36/26/41 35/33/37
f 42/37/42 43/38/43 39/39/44 38/40/42
f 50/41/45 46/42/45 47/43/46 51/44/47
f 37/45/48 41/46/48 49/47/48 45/48/48
f 38/40/49 39/39/50 47/43/51 46/42/49
f 39/39/50 40/49/52 48/50/53 47/43/51
f 40/49/52 37/45/54 45/48/54 48/50/53
f 42/37/55 38/40/55 46/42/55 50/41/55
f 43/38/56 42/37/57 50/41/57 51/44/58
f 44/51/59 43/38/56 51/44/58 52/52/60
f 41/46/61 44/51/59 52/52/60 49/47/61
f 39/39/44 43/38/43 44/51/62 41/46/62 37/45/62 40/49/62
f 51/44/47 47/43/46 48/50/63 45/48/63 49/47/63 52/52/63
f 22/23/21 26/22/20 25/32/64 23/31/64 24/35/64
f 36/26/24 32/25/23 34/36/65 33/34/65 35/33/65
f 9/9/6 11/8/5 12/16/66 10/14/66
f 3/6/3 1/5/2 2/13/67 4/15/67
