# Blender v2.80 (sub 75) OBJ File: 'light.blend'
# www.blender.org
mtllib lightBulb.mtl
o Cylinder.001_Cylinder.002
v 1.762346 5.950277 -0.129174
v 1.454608 5.950277 0.149455
v 1.454608 5.950277 -0.152636
v 1.550168 5.950277 -0.145351
v 1.637199 5.950277 0.135534
v 1.550168 5.950277 0.142170
v 1.637199 5.950277 -0.138715
v 1.762346 5.950277 0.125993
v 1.251871 5.950277 0.146152
v 1.356706 5.950277 0.156919
v 1.215166 5.950277 0.112139
v 1.202508 5.950277 0.081488
v 1.356706 5.950277 -0.160100
v 1.251871 5.950277 -0.149333
v 1.215166 5.950277 -0.115320
v 1.202508 5.950277 -0.084669
v 1.535061 5.776068 -0.091295
v 1.535061 5.776068 0.088114
v 1.683741 5.776068 -0.079960
v 1.683741 5.776068 0.076778
v 1.468101 5.776068 -0.096400
v 1.468101 5.776068 0.093219
v 1.596047 5.776068 -0.086645
v 1.596047 5.776068 0.083464
v 1.331687 5.776068 0.091308
v 1.400484 5.776068 0.098374
v 1.310458 5.776068 0.071636
v 1.303352 5.776068 0.054430
v 1.400484 5.776068 -0.101555
v 1.331687 5.776068 -0.094490
v 1.310458 5.776068 -0.074818
v 1.303352 5.776068 -0.057611
v 1.237144 5.798582 -0.076236
v 1.246611 5.798582 -0.099162
v 1.743994 5.798582 0.102833
v 1.456664 5.798582 0.124739
v 1.545886 5.798582 0.117937
v 1.237144 5.798582 0.073055
v 1.456664 5.798582 -0.127920
v 1.366568 5.798582 -0.134790
v 1.743994 5.798582 -0.106014
v 1.274898 5.798582 0.122193
v 1.366568 5.798582 0.131608
v 1.627146 5.798582 0.111742
v 1.246611 5.798582 0.095981
v 1.627146 5.798582 -0.114923
v 1.545886 5.798582 -0.121118
v 1.274898 5.798582 -0.125374
v 1.249673 5.947145 0.151012
v 1.356639 5.947145 0.161998
v 1.210913 5.947145 0.115095
v 1.197448 5.947145 0.082491
v 1.356639 5.947145 -0.165179
v 1.249673 5.947145 -0.154193
v 1.210913 5.947145 -0.118276
v 1.197448 5.947145 -0.085673
v 1.762731 5.947145 -0.134218
v 1.454993 5.947145 0.154500
v 1.550552 5.947145 -0.150395
v 1.454993 5.947145 -0.157681
v 1.550552 5.947145 0.147214
v 1.637584 5.947145 0.140579
v 1.637584 5.947145 -0.143760
v 1.762731 5.947145 0.131037
v 1.363740 5.805177 0.134380
v 1.356883 5.839921 0.143378
v 1.215996 5.839921 0.078812
v 1.231254 5.805618 0.074711
v 1.257733 5.839921 0.133195
v 1.270022 5.805372 0.124845
v 1.226503 5.839921 0.104256
v 1.240998 5.805536 0.098122
v 1.231254 5.805618 -0.077892
v 1.215996 5.839921 -0.081994
v 1.356883 5.839921 -0.146560
v 1.363740 5.805177 -0.137561
v 1.240998 5.805536 -0.101303
v 1.226503 5.839921 -0.107437
v 1.270022 5.805372 -0.128026
v 1.257733 5.839921 -0.136376
v 1.749414 5.805695 -0.108357
v 1.761321 5.839921 -0.115725
v 1.455722 5.805096 0.127336
v 1.453583 5.839921 0.136006
v 1.455722 5.805096 -0.130517
v 1.453583 5.839921 -0.139187
v 1.549142 5.839921 -0.131901
v 1.546785 5.805151 -0.123595
v 1.629806 5.805346 0.114160
v 1.636174 5.839921 0.122085
v 1.549142 5.839921 0.128720
v 1.546785 5.805151 0.120414
v 1.629806 5.805346 -0.117341
v 1.636174 5.839921 -0.125266
v 1.761321 5.839921 0.112544
v 1.749414 5.805695 0.105176
v 2.076410 5.950277 -0.044107
v 2.007464 5.950277 -0.110486
v 1.813849 5.776068 -0.070040
v 1.893590 5.776068 -0.004985
v 1.948446 5.798582 -0.090426
v 2.023610 5.798582 -0.025602
v 2.081469 5.947145 -0.047220
v 2.012944 5.947145 -0.115142
v 2.036180 5.806228 -0.027237
v 1.964262 5.806094 -0.092132
v 1.993208 5.839921 -0.098045
v 2.062922 5.839921 -0.032608
v 2.027625 5.950277 0.105767
v 2.076410 5.950277 0.058799
v 1.893590 5.776068 0.019049
v 1.837167 5.776068 0.065081
v 2.023610 5.798582 0.039701
v 1.970425 5.798582 0.085569
v 2.032982 5.947145 0.110433
v 2.081469 5.947145 0.062372
v 2.062922 5.839921 0.047007
v 2.013593 5.839921 0.093310
v 1.985291 5.806133 0.087362
v 2.036180 5.806228 0.041443
vt 0.265805 0.331965
vt 0.224916 0.341897
vt 0.266450 0.330043
vt 0.371863 0.296841
vt 0.369298 0.267755
vt 0.382765 0.273465
vt 0.359035 0.214064
vt 0.359426 0.232196
vt 0.352673 0.219523
vt 0.369269 0.300293
vt 0.359651 0.290000
vt 0.206379 0.339954
vt 0.222774 0.316164
vt 0.225903 0.320337
vt 0.303085 0.155705
vt 0.308032 0.153767
vt 0.321856 0.161604
vt 0.414895 0.261055
vt 0.416069 0.273308
vt 0.414726 0.273149
vt 0.413223 0.280645
vt 0.398817 0.316408
vt 0.397683 0.315733
vt 0.383485 0.329865
vt 0.393853 0.322727
vt 0.384268 0.331119
vt 0.392849 0.321785
vt 0.360333 0.341177
vt 0.359882 0.339903
vt 0.338830 0.176006
vt 0.316431 0.134190
vt 0.407461 0.237020
vt 0.399354 0.216475
vt 0.408701 0.236539
vt 0.388632 0.198183
vt 0.380874 0.180557
vt 0.389798 0.197583
vt 0.298805 0.357023
vt 0.272058 0.365549
vt 0.271733 0.364278
vt 0.187237 0.339549
vt 0.191628 0.372625
vt 0.172143 0.357287
vt 0.398174 0.217048
vt 0.338766 0.347438
vt 0.338403 0.346157
vt 0.366808 0.156970
vt 0.379720 0.181168
vt 0.317692 0.351896
vt 0.299152 0.358309
vt 0.204587 0.342146
vt 0.196636 0.330591
vt 0.369350 0.230515
vt 0.376631 0.247327
vt 0.367936 0.230989
vt 0.370544 0.301227
vt 0.373222 0.297774
vt 0.384364 0.273902
vt 0.328946 0.314832
vt 0.347173 0.308800
vt 0.348097 0.310085
vt 0.291496 0.324924
vt 0.291603 0.323223
vt 0.364012 0.304162
vt 0.365166 0.305222
vt 0.385018 0.262928
vt 0.383782 0.269195
vt 0.383494 0.262707
vt 0.378143 0.247199
vt 0.391741 0.263075
vt 0.309400 0.320051
vt 0.309147 0.318497
vt 0.351920 0.197269
vt 0.339755 0.174238
vt 0.360305 0.213223
vt 0.328324 0.313406
vt 0.358171 0.192545
vt 0.366980 0.209306
vt 0.350780 0.198478
vt 0.248892 0.326312
vt 0.276639 0.318513
vt 0.317242 0.235712
vt 0.312633 0.223122
vt 0.337456 0.191027
vt 0.346444 0.207874
vt 0.371882 0.257882
vt 0.370661 0.263974
vt 0.368233 0.267264
vt 0.337895 0.302372
vt 0.316477 0.130774
vt 0.366221 0.244793
vt 0.295613 0.313361
vt 0.308809 0.309839
vt 0.323271 0.306020
vt 0.352588 0.297423
vt 0.357488 0.293236
vt 0.369641 0.310418
vt 0.292332 0.332913
vt 0.265439 0.340156
vt 0.351495 0.316849
vt 0.391762 0.270830
vt 0.390819 0.275754
vt 0.331539 0.322286
vt 0.311099 0.327839
vt 0.385317 0.269594
vt 0.385201 0.245467
vt 0.191195 0.374173
vt 0.170586 0.357875
vt 0.337165 0.103761
vt 0.367932 0.156358
vt 0.375655 0.305379
vt 0.376354 0.227571
vt 0.378787 0.301414
vt 0.215467 0.377845
vt 0.214725 0.379496
vt 0.319563 0.122160
vt 0.345334 0.168463
vt 0.318045 0.353182
vt 0.414493 0.281069
vt 0.416328 0.260849
vt 0.218404 0.352286
vt 0.222426 0.344301
vt 0.194204 0.332727
vt 0.200185 0.349120
vt 0.337884 0.102147
vt 0.324425 0.094475
vt 0.325137 0.093052
vt 0.305217 0.121986
vt 0.308485 0.112788
vt 0.304906 0.125180
vt 0.296472 0.177658
vt 0.306081 0.204922
vt 0.322383 0.249498
vt 0.345994 0.278306
vt 0.327699 0.263356
vt 0.341878 0.278591
vt 0.335881 0.276316
vn 0.0725 -0.2980 -0.9518
vn 0.1549 -0.7653 -0.6247
vn 0.0604 -0.6070 -0.7924
vn -0.5654 -0.8174 -0.1101
vn -0.1742 -0.9842 0.0325
vn -0.5654 -0.8174 0.1101
vn 0.0604 -0.6070 0.7924
vn 0.0237 -0.9500 0.3113
vn -0.4800 -0.8077 -0.3422
vn -0.1742 -0.9842 -0.0325
vn 0.3611 -0.9124 -0.1926
vn 0.0985 -0.9932 0.0620
vn 0.0985 -0.9932 -0.0615
vn 0.0414 -0.9505 0.3080
vn -0.1166 -0.9591 0.2578
vn 0.4249 -0.8556 -0.2954
vn -0.2741 -0.9427 0.1905
vn -0.3367 -0.9392 0.0668
vn 0.5091 -0.8547 0.1010
vn -0.3367 -0.9392 -0.0668
vn -0.1166 -0.9591 -0.2578
vn 0.4249 -0.8556 0.2954
vn 0.2087 -0.8623 0.4613
vn -0.2741 -0.9427 -0.1905
vn 0.0069 -0.8512 0.5248
vn -0.0051 -0.9196 -0.3928
vn 0.1586 -0.7646 0.6246
vn -0.0051 -0.9196 0.3928
vn -0.0400 -0.8502 -0.5249
vn 0.0069 -0.8512 -0.5248
vn 0.0329 -0.9016 0.4313
vn 0.0329 -0.9015 -0.4313
vn -0.0400 -0.8502 0.5249
vn 0.0329 -0.9016 -0.4313
vn 0.8558 -0.3804 0.3506
vn 0.2177 -0.9673 -0.1297
vn 0.2186 -0.9657 0.1399
vn 0.0329 -0.9015 0.4313
vn 0.6274 -0.7243 -0.2858
vn 0.3602 -0.9131 0.1912
vn 0.0725 -0.2992 0.9514
vn -0.0093 -0.6332 0.7739
vn -0.6999 -0.5230 -0.4865
vn -0.8293 -0.5339 -0.1649
vn -0.8293 -0.5339 0.1649
vn 0.0725 -0.2992 -0.9514
vn -0.0093 -0.6332 -0.7739
vn -0.0162 -0.3244 -0.9457
vn 0.0724 -0.2987 -0.9516
vn -0.2528 -0.7299 -0.6350
vn -0.3705 -0.4442 -0.8157
vn -0.3705 -0.4442 0.8157
vn -0.4800 -0.8077 0.3422
vn -0.2528 -0.7299 0.6350
vn -0.0162 -0.3244 0.9457
vn -0.4159 -0.2357 0.8783
vn 0.0724 -0.2991 -0.9514
vn 0.0724 -0.2987 0.9516
vn 0.0725 -0.2980 0.9518
vn 0.0724 -0.2991 0.9514
vn 0.0747 -0.1787 0.9810
vn 0.0747 -0.1791 0.9810
vn 0.0412 -0.9505 -0.3081
vn 0.0237 -0.9500 -0.3113
vn -0.0712 -0.9610 0.2670
vn -0.1487 -0.9825 0.1122
vn 0.0091 -0.9489 -0.3153
vn 0.2976 -0.5672 0.7679
vn 0.0091 -0.9489 0.3153
vn -0.0712 -0.9610 -0.2670
vn -0.1487 -0.9825 -0.1122
vn -0.4159 -0.2357 -0.8783
vn 0.0747 -0.1787 -0.9810
vn 0.0747 -0.1780 -0.9812
vn -0.0177 -0.1880 -0.9820
vn -0.7945 -0.2646 0.5466
vn -0.9444 -0.2690 0.1888
vn 0.0748 -0.1793 -0.9809
vn 0.0747 -0.1791 -0.9810
vn -0.6999 -0.5230 0.4865
vn -0.0177 -0.1880 0.9820
vn -0.4286 -0.8829 0.1917
vn -0.4155 -0.8892 -0.1912
vn 0.1741 -0.9545 0.2420
vn -0.7945 -0.2646 -0.5466
vn 0.0748 -0.1793 0.9809
vn -0.9444 -0.2690 -0.1888
vn 0.1755 -0.9542 -0.2422
vn -0.2007 -0.9045 0.3762
vn 0.4118 -0.3132 0.8558
vn 0.0747 -0.1781 0.9812
vn 0.5091 -0.8547 -0.1010
vn 0.2087 -0.8623 -0.4613
vn 0.4112 -0.3161 -0.8549
vn 0.2930 -0.5772 -0.7622
vn 0.6264 -0.7253 0.2856
vn 0.8562 -0.3797 -0.3504
vn -0.2014 -0.9032 -0.3791
usemtl Material
s 1
f 81/1/1 101/2/2 41/3/3
f 33/4/4 28/5/5 38/6/6
f 37/7/7 22/8/8 18/9/8
f 34/10/9 32/11/10 33/4/4
f 102/12/11 111/13/12 100/14/13
f 100/15/13 111/16/12 112/17/14
f 9/18/15 51/19/16 11/20/17
f 12/21/18 56/22/19 16/23/20
f 14/24/21 55/25/22 54/26/23
f 15/27/24 56/22/19 55/25/22
f 14/24/21 53/28/25 13/29/26
f 35/30/7 112/17/14 114/31/27
f 10/32/28 58/33/29 50/34/30
f 6/35/31 62/36/29 61/37/29
f 7/38/32 57/39/33 1/40/34
f 117/41/35 97/42/36 110/43/37
f 2/44/31 61/37/29 58/33/29
f 13/29/26 60/45/33 3/46/34
f 8/47/38 62/36/29 5/48/31
f 4/49/34 63/50/33 7/38/32
f 105/51/39 113/52/40 102/12/11
f 83/53/41 43/54/42 36/55/7
f 77/56/43 33/4/4 73/57/44
f 68/58/45 33/4/4 38/6/6
f 85/59/46 40/60/47 76/61/48
f 93/62/49 41/3/3 46/63/3
f 76/61/48 48/64/50 79/65/51
f 70/66/52 45/67/53 42/68/54
f 65/69/55 42/68/54 43/54/42
f 69/70/56 10/32/28 9/18/15
f 88/71/57 46/63/3 47/72/3
f 89/73/58 35/30/7 96/74/59
f 92/75/60 36/55/7 37/7/7
f 88/71/57 39/76/3 85/59/46
f 79/65/51 34/10/9 77/56/43
f 90/77/61 6/35/31 91/78/62
f 92/75/60 44/79/7 89/73/58
f 41/3/3 99/80/63 19/81/64
f 22/8/8 17/82/64 18/9/8
f 23/83/64 20/84/8 24/85/8
f 25/86/65 27/87/66 28/88/5
f 17/82/64 24/85/8 18/9/8
f 39/76/3 29/89/67 40/60/47
f 96/74/59 114/31/27 119/90/68
f 43/54/42 25/86/65 26/91/69
f 44/79/7 20/84/8 35/30/7
f 36/55/7 26/91/69 22/8/8
f 42/68/54 27/87/66 25/86/65
f 47/72/3 23/92/64 17/93/64
f 47/72/3 21/94/64 39/76/3
f 45/67/53 28/5/5 27/87/66
f 37/7/7 24/85/8 44/79/7
f 40/60/47 30/95/70 48/64/50
f 46/63/3 19/81/64 23/92/64
f 48/64/50 31/96/71 34/10/9
f 80/97/72 15/27/24 14/24/21
f 94/98/73 1/40/34 82/99/74
f 80/97/72 13/29/26 75/100/75
f 90/77/61 8/47/38 5/48/31
f 71/101/76 12/21/18 67/102/77
f 86/103/78 4/49/34 87/104/79
f 87/104/79 7/38/32 94/98/73
f 69/70/56 11/20/17 71/101/76
f 72/105/80 38/6/6 45/67/53
f 66/106/81 2/44/31 10/32/28
f 110/43/37 103/107/82 116/108/83
f 75/100/75 3/46/34 86/103/78
f 109/109/84 64/110/29 8/47/38
f 78/111/85 16/23/20 15/27/24
f 91/78/62 2/44/31 84/112/86
f 67/102/77 16/23/20 74/113/87
f 98/114/88 57/39/33 104/115/89
f 118/116/90 8/47/38 95/117/91
f 3/46/34 59/118/33 4/49/34
f 11/20/17 52/119/92 12/21/18
f 9/18/15 50/34/30 49/120/93
f 107/121/94 1/40/34 98/114/88
f 95/117/91 119/90/68 118/116/90
f 82/99/74 106/122/95 81/1/1
f 70/66/52 66/106/81 69/70/56
f 72/105/80 69/70/56 71/101/76
f 68/58/45 71/101/76 67/102/77
f 79/65/51 75/100/75 76/61/48
f 77/56/43 80/97/72 79/65/51
f 73/57/44 78/111/85 77/56/43
f 74/113/87 68/58/45 67/102/77
f 84/112/86 65/69/55 83/53/41
f 87/104/79 85/59/46 86/103/78
f 91/78/62 89/73/58 90/77/61
f 94/98/73 81/1/1 93/62/49
f 120/123/96 108/124/97 117/41/35
f 91/78/62 83/53/41 92/75/60
f 86/103/78 76/61/48 75/100/75
f 90/77/61 96/74/59 95/117/91
f 87/104/79 93/62/49 88/71/57
f 101/2/2 100/14/13 99/80/63
f 104/115/89 97/42/36 98/114/88
f 107/121/94 105/51/39 106/122/95
f 106/122/95 102/12/11 101/2/2
f 98/114/88 108/124/97 107/121/94
f 111/16/12 114/31/27 112/17/14
f 115/125/98 110/126/37 116/127/83
f 118/116/90 120/128/96 117/129/35
f 119/90/68 113/130/40 120/128/96
f 109/109/84 117/129/35 110/126/37
f 81/1/1 106/122/95 101/2/2
f 33/4/4 32/11/10 28/5/5
f 37/7/7 36/55/7 22/8/8
f 34/10/9 31/96/71 32/11/10
f 102/12/11 113/52/40 111/13/12
f 112/17/14 20/84/8 99/131/63
f 20/84/8 19/132/64 99/131/63
f 99/131/63 100/15/13 112/17/14
f 9/18/15 49/120/93 51/19/16
f 12/21/18 52/119/92 56/22/19
f 14/24/21 15/27/24 55/25/22
f 15/27/24 16/23/20 56/22/19
f 14/24/21 54/26/23 53/28/25
f 35/30/7 20/84/8 112/17/14
f 10/32/28 2/44/31 58/33/29
f 6/35/31 5/48/31 62/36/29
f 7/38/32 63/50/33 57/39/33
f 117/41/35 108/124/97 97/42/36
f 2/44/31 6/35/31 61/37/29
f 13/29/26 53/28/25 60/45/33
f 8/47/38 64/110/29 62/36/29
f 4/49/34 59/118/33 63/50/33
f 105/51/39 120/123/96 113/52/40
f 83/53/41 65/69/55 43/54/42
f 77/56/43 34/10/9 33/4/4
f 68/58/45 73/57/44 33/4/4
f 85/59/46 39/76/3 40/60/47
f 93/62/49 81/1/1 41/3/3
f 76/61/48 40/60/47 48/64/50
f 70/66/52 72/105/80 45/67/53
f 65/69/55 70/66/52 42/68/54
f 69/70/56 66/106/81 10/32/28
f 88/71/57 93/62/49 46/63/3
f 89/73/58 44/79/7 35/30/7
f 92/75/60 83/53/41 36/55/7
f 88/71/57 47/72/3 39/76/3
f 79/65/51 48/64/50 34/10/9
f 90/77/61 5/48/31 6/35/31
f 92/75/60 37/7/7 44/79/7
f 41/3/3 101/2/2 99/80/63
f 22/8/8 21/133/64 17/82/64
f 23/83/64 19/132/64 20/84/8
f 28/88/5 32/134/10 29/135/67
f 32/134/10 31/136/71 30/137/70
f 29/135/67 32/134/10 30/137/70
f 29/135/67 21/133/64 22/8/8
f 22/8/8 26/91/69 29/135/67
f 26/91/69 25/86/65 28/88/5
f 29/135/67 26/91/69 28/88/5
f 17/82/64 23/83/64 24/85/8
f 39/76/3 21/94/64 29/89/67
f 96/74/59 35/30/7 114/31/27
f 43/54/42 42/68/54 25/86/65
f 44/79/7 24/85/8 20/84/8
f 36/55/7 43/54/42 26/91/69
f 42/68/54 45/67/53 27/87/66
f 47/72/3 46/63/3 23/92/64
f 47/72/3 17/93/64 21/94/64
f 45/67/53 38/6/6 28/5/5
f 37/7/7 18/9/8 24/85/8
f 40/60/47 29/89/67 30/95/70
f 46/63/3 41/3/3 19/81/64
f 48/64/50 30/95/70 31/96/71
f 80/97/72 78/111/85 15/27/24
f 94/98/73 7/38/32 1/40/34
f 80/97/72 14/24/21 13/29/26
f 90/77/61 95/117/91 8/47/38
f 71/101/76 11/20/17 12/21/18
f 86/103/78 3/46/34 4/49/34
f 87/104/79 4/49/34 7/38/32
f 69/70/56 9/18/15 11/20/17
f 72/105/80 68/58/45 38/6/6
f 66/106/81 84/112/86 2/44/31
f 110/43/37 97/42/36 103/107/82
f 75/100/75 13/29/26 3/46/34
f 109/109/84 115/125/98 64/110/29
f 78/111/85 74/113/87 16/23/20
f 91/78/62 6/35/31 2/44/31
f 67/102/77 12/21/18 16/23/20
f 98/114/88 1/40/34 57/39/33
f 118/116/90 109/109/84 8/47/38
f 3/46/34 60/45/33 59/118/33
f 11/20/17 51/19/16 52/119/92
f 9/18/15 10/32/28 50/34/30
f 107/121/94 82/99/74 1/40/34
f 95/117/91 96/74/59 119/90/68
f 82/99/74 107/121/94 106/122/95
f 70/66/52 65/69/55 66/106/81
f 72/105/80 70/66/52 69/70/56
f 68/58/45 72/105/80 71/101/76
f 79/65/51 80/97/72 75/100/75
f 77/56/43 78/111/85 80/97/72
f 73/57/44 74/113/87 78/111/85
f 74/113/87 73/57/44 68/58/45
f 84/112/86 66/106/81 65/69/55
f 87/104/79 88/71/57 85/59/46
f 91/78/62 92/75/60 89/73/58
f 94/98/73 82/99/74 81/1/1
f 120/123/96 105/51/39 108/124/97
f 91/78/62 84/112/86 83/53/41
f 86/103/78 85/59/46 76/61/48
f 90/77/61 89/73/58 96/74/59
f 87/104/79 94/98/73 93/62/49
f 101/2/2 102/12/11 100/14/13
f 104/115/89 103/107/82 97/42/36
f 107/121/94 108/124/97 105/51/39
f 106/122/95 105/51/39 102/12/11
f 98/114/88 97/42/36 108/124/97
f 111/16/12 113/130/40 114/31/27
f 115/125/98 109/109/84 110/126/37
f 118/116/90 119/90/68 120/128/96
f 119/90/68 114/31/27 113/130/40
f 109/109/84 118/116/90 117/129/35
