# Blender v2.80 (sub 75) OBJ File: 'patio.blend'
# www.blender.org
mtllib patioTable.mtl
o Cube_Cube.003
v -4.974417 0.822754 0.846262
v -4.899967 0.868776 0.771812
v -4.974417 0.822754 -0.846262
v -4.899967 0.868776 -0.771812
v -3.281892 0.822754 0.846262
v -3.356343 0.868776 0.771812
v -3.281892 0.822754 -0.846262
v -3.356343 0.868776 -0.771812
v -4.127370 0.006657 -0.110478
v -4.127370 0.841833 -0.110478
v -4.072131 0.006657 -0.095677
v -4.072131 0.841833 -0.095677
v -4.031693 0.006657 -0.055239
v -4.031693 0.841833 -0.055239
v -4.016891 0.006657 0.000000
v -4.016891 0.841833 0.000000
v -4.031693 0.006657 0.055239
v -4.031693 0.841833 0.055239
v -4.072131 0.006657 0.095677
v -4.072131 0.841833 0.095677
v -4.127370 0.006657 0.110478
v -4.127370 0.841833 0.110478
v -4.182609 0.006657 0.095677
v -4.182609 0.841833 0.095677
v -4.223047 0.006657 0.055239
v -4.223047 0.841833 0.055239
v -4.237848 0.006657 0.000000
v -4.237848 0.841833 0.000000
v -4.223047 0.006657 -0.055239
v -4.223047 0.841833 -0.055239
v -4.182609 0.006657 -0.095677
v -4.182609 0.841833 -0.095677
v -4.127370 0.055023 -0.110478
v -4.072131 0.055023 -0.095677
v -4.031693 0.055023 -0.055239
v -4.016891 0.055023 0.000000
v -4.031693 0.055023 0.055239
v -4.072131 0.055023 0.095677
v -4.127370 0.055023 0.110478
v -4.182609 0.055023 0.095677
v -4.223047 0.055023 0.055239
v -4.237848 0.055023 0.000000
v -4.223047 0.055023 -0.055239
v -4.182609 0.055023 -0.095677
v -3.963292 0.055023 -0.284192
v -3.963292 0.006657 -0.284192
v -3.843179 0.006657 -0.164078
v -3.843179 0.055023 -0.164078
v -3.843179 0.055023 0.164078
v -3.843179 0.006657 0.164078
v -3.963292 0.006657 0.284192
v -3.963292 0.055023 0.284192
v -4.291449 0.055023 0.284192
v -4.291449 0.006657 0.284192
v -4.411562 0.006657 0.164078
v -4.411562 0.055023 0.164078
v -4.411562 0.055023 -0.164078
v -4.411562 0.006657 -0.164078
v -4.291449 0.006657 -0.284192
v -4.291449 0.055023 -0.284192
v -4.974417 0.868776 0.846262
v -4.974417 0.868776 -0.846262
v -3.281892 0.868776 -0.846262
v -3.281892 0.868776 0.846262
v -4.974417 0.875038 0.846262
v -4.974417 0.875038 -0.846262
v -3.281892 0.875038 -0.846262
v -3.281892 0.875038 0.846262
v -4.899967 0.875038 0.771812
v -4.899967 0.875038 -0.771812
v -3.356343 0.875038 -0.771812
v -3.356343 0.875038 0.771812
vt 0.412978 0.285016
vt 0.412979 0.054666
vt 0.643330 0.054667
vt 0.643329 0.285017
vt 0.873679 0.285019
vt 0.873678 0.515369
vt 0.643328 0.515368
vt 0.643327 0.745719
vt 0.412976 0.745718
vt 0.412977 0.515367
vt 0.182626 0.515366
vt 0.182627 0.285015
vt 0.819894 0.533085
vt 0.981791 0.533085
vt 0.981791 0.694982
vt 0.819894 0.694982
vt 0.412979 0.023325
vt 0.643330 0.023325
vt 0.365746 0.623792
vt 0.139041 0.623792
vt 0.139041 0.589971
vt 0.365746 0.589972
vt 0.643326 0.777060
vt 0.412976 0.777059
vt 0.139019 0.782863
vt 0.365746 0.782864
vt 0.365746 0.816687
vt 0.139019 0.816687
vt 0.376681 0.579037
vt 0.376681 0.827623
vt 0.128106 0.579037
vt 0.128107 0.827601
vt 0.151285 0.515366
vt 0.151286 0.285015
vt 0.172860 0.589972
vt 0.172860 0.816667
vt 0.331923 0.816687
vt 0.331924 0.589971
vt 0.905021 0.285019
vt 0.905020 0.515369
vt 0.016206 0.023848
vt 0.009616 0.992780
vt 0.007701 0.992775
vt 0.014860 0.023799
vt 0.005785 0.992771
vt 0.013514 0.023729
vt 0.003869 0.992767
vt 0.012165 0.023639
vt 0.001954 0.992762
vt 0.010813 0.023529
vt 0.000038 0.992758
vt 0.008862 0.023511
vt 0.025635 0.023618
vt 0.023025 0.992813
vt 0.021110 0.992808
vt 0.024282 0.023712
vt 0.019194 0.992803
vt 0.022932 0.023786
vt 0.017279 0.992798
vt 0.021585 0.023840
vt 0.015363 0.992794
vt 0.020239 0.023873
vt 0.013448 0.992789
vt 0.018894 0.023885
vt 0.024668 0.999009
vt 0.023006 0.999962
vt 0.021091 0.999957
vt 0.019434 0.998995
vt 0.018481 0.997334
vt 0.018486 0.995418
vt 0.019448 0.993762
vt 0.024681 0.993776
vt 0.025635 0.995437
vt 0.025630 0.997352
vt 0.011532 0.992784
vt 0.017550 0.023877
vt 0.018132 0.000783
vt 0.017995 0.000659
vt 0.017932 0.000481
vt 0.017902 0.000265
vt 0.017777 0.000038
vt 0.018968 0.000048
vt 0.018908 0.000273
vt 0.018822 0.000460
vt 0.018727 0.000636
vt 0.018596 0.000761
vt 0.018444 0.000830
vt 0.018285 0.000855
vt 0.686501 0.022145
vt 0.686501 0.240926
vt 0.679467 0.240926
vt 0.679467 0.022145
vt 0.129395 0.001804
vt 0.114962 0.053981
vt 0.108577 0.052215
vt 0.123010 0.000038
vt 0.905326 0.043291
vt 0.686545 0.043291
vt 0.686545 0.036257
vt 0.905326 0.036258
vt 0.905326 0.050325
vt 0.686545 0.050325
vt 0.063082 0.060342
vt 0.077515 0.112520
vt 0.071130 0.114286
vt 0.056696 0.062109
vt 0.905326 0.029179
vt 0.686545 0.029178
vt 0.686545 0.022145
vt 0.905326 0.022146
vt 0.905326 0.036212
vt 0.686545 0.036212
vt 0.037142 0.053981
vt 0.037128 0.055722
vt 0.030715 0.057385
vt 0.030756 0.052215
vt 0.693580 0.269150
vt 0.693579 0.050369
vt 0.700613 0.050369
vt 0.700613 0.269150
vt 0.686546 0.269150
vt 0.686545 0.050369
vt 0.050717 0.108125
vt 0.051575 0.109639
vt 0.046853 0.114286
vt 0.044304 0.109788
vt 0.672433 0.240926
vt 0.672434 0.022145
vt 0.117120 0.111086
vt 0.103531 0.058682
vt 0.108535 0.057385
vt 0.122124 0.109788
vt 0.039299 0.111086
vt 0.025710 0.058682
vt 0.070244 0.004536
vt 0.056655 0.056939
vt 0.051650 0.055641
vt 0.065240 0.003238
vt 0.096184 0.004536
vt 0.082595 0.056939
vt 0.077590 0.055641
vt 0.091180 0.003238
vt 0.128537 0.108125
vt 0.129395 0.109639
vt 0.124673 0.114286
vt 0.102597 0.006199
vt 0.089008 0.058602
vt 0.063068 0.058602
vt 0.114948 0.055722
vt 0.103455 0.004684
vt 0.098733 0.000038
vt 0.076657 0.006199
vt 0.077515 0.004684
vt 0.072793 0.000038
vt 0.089022 0.060342
vt 0.103455 0.112520
vt 0.097070 0.114286
vt 0.082637 0.062109
vt 0.051575 0.001804
vt 0.045190 0.000038
vn -1.0000 0.0000 0.0000
vn 0.0000 0.0000 -1.0000
vn 1.0000 0.0000 0.0000
vn 0.0000 0.0000 1.0000
vn 0.0000 -1.0000 0.0000
vn 0.0000 1.0000 0.0000
vn 0.5000 0.0000 -0.8660
vn 0.4210 0.0000 -0.9071
vn 0.8660 0.0000 -0.5000
vn 0.9071 0.0000 -0.4210
vn 0.8660 0.0000 0.5000
vn 0.9071 0.0000 0.4210
vn 0.5000 0.0000 0.8660
vn 0.4210 0.0000 0.9071
vn -0.5000 0.0000 0.8660
vn -0.4210 0.0000 0.9071
vn -0.8660 0.0000 0.5000
vn -0.9071 0.0000 0.4210
vn -0.8660 0.0000 -0.5000
vn -0.9071 0.0000 -0.4210
vn -0.5000 0.0000 -0.8660
vn -0.4210 0.0000 -0.9071
vn -0.2588 0.0000 -0.9659
vn -0.9659 0.0000 -0.2588
vn -0.9659 0.0000 0.2588
vn -0.2588 0.0000 0.9659
vn 0.2588 0.0000 0.9659
vn 0.9659 0.0000 0.2588
vn 0.9659 0.0000 -0.2588
vn 0.2588 0.0000 -0.9659
vn -0.7071 0.0000 -0.7071
vn -0.7071 0.0000 0.7071
vn 0.7071 0.0000 0.7071
vn 0.7071 0.0000 -0.7071
usemtl Material.003
s off
f 1/1/1 61/2/1 62/3/1 3/4/1
f 3/4/2 62/5/2 63/6/2 7/7/2
f 7/7/3 63/8/3 64/9/3 5/10/3
f 5/10/4 64/11/4 61/12/4 1/1/4
f 3/4/5 7/7/5 5/10/5 1/1/5
f 8/13/6 4/14/6 2/15/6 6/16/6
f 62/3/1 61/2/1 65/17/1 66/18/1
f 4/19/4 8/20/4 71/21/4 70/22/4
f 64/9/3 63/8/3 67/23/3 68/24/3
f 6/25/2 2/26/2 69/27/2 72/28/2
f 69/27/6 70/22/6 66/29/6 65/30/6
f 70/22/6 71/21/6 67/31/6 66/29/6
f 71/21/6 72/28/6 68/32/6 67/31/6
f 72/28/6 69/27/6 65/30/6 68/32/6
f 61/12/4 64/11/4 68/33/4 65/34/4
f 8/35/1 6/36/1 72/28/1 71/21/1
f 2/37/3 4/38/3 70/22/3 69/27/3
f 63/6/2 62/5/2 66/39/2 67/40/2
s 1
f 33/41/2 10/42/2 12/43/7 34/44/8
f 34/44/8 12/43/7 14/45/9 35/46/10
f 35/46/10 14/45/9 16/47/3 36/48/3
f 36/48/3 16/47/3 18/49/11 37/50/12
f 37/50/12 18/49/11 20/51/13 38/52/14
f 38/53/14 20/54/13 22/55/4 39/56/4
f 39/56/4 22/55/4 24/57/15 40/58/16
f 40/58/16 24/57/15 26/59/17 41/60/18
f 41/60/18 26/59/17 28/61/1 42/62/1
f 42/62/1 28/61/1 30/63/19 43/64/20
f 12/65/6 10/66/6 32/67/6 30/68/6 28/69/6 26/70/6 24/71/6 22/55/6 20/54/6 18/72/6 16/73/6 14/74/6
f 43/64/20 30/63/19 32/75/21 44/76/22
f 44/76/22 32/75/21 10/42/2 33/41/2
f 9/77/5 11/78/5 13/79/5 15/80/5 17/81/5 19/82/5 21/83/5 23/84/5 25/85/5 27/86/5 29/87/5 31/88/5
f 31/89/23 44/90/22 33/91/2 9/92/2
f 29/93/15 43/94/15 57/95/15 58/96/15
f 27/97/1 42/98/1 43/99/20 29/100/24
f 25/101/25 41/102/18 42/98/1 27/97/1
f 38/103/17 19/104/17 51/105/17 52/106/17
f 21/107/4 39/108/4 40/109/16 23/110/26
f 19/111/27 38/112/14 39/108/4 21/107/4
f 40/113/6 41/114/6 56/115/6 53/116/6
f 15/117/3 36/118/3 37/119/12 17/120/28
f 13/121/29 35/122/10 36/118/3 15/117/3
f 25/123/5 23/124/5 54/125/5 55/126/5
f 9/92/2 33/91/2 34/127/8 11/128/30
f 58/129/31 57/130/31 60/131/31 59/132/31
f 54/133/32 53/134/32 56/115/32 55/126/32
f 50/135/33 49/136/33 52/137/33 51/138/33
f 46/139/34 45/140/34 48/141/34 47/142/34
f 31/143/5 29/144/5 58/145/5 59/132/5
f 41/114/21 25/123/21 55/126/21 56/115/21
f 11/146/19 34/147/19 45/140/19 46/139/19
f 37/148/6 38/103/6 52/106/6 49/136/6
f 44/149/9 31/143/9 59/132/9 60/131/9
f 13/150/5 11/146/5 46/139/5 47/151/5
f 17/152/7 37/148/7 49/136/7 50/135/7
f 43/94/6 44/149/6 60/131/6 57/95/6
f 19/153/5 17/152/5 50/135/5 51/154/5
f 35/155/13 13/156/13 47/157/13 48/158/13
f 34/147/6 35/155/6 48/158/6 45/140/6
f 23/159/11 40/113/11 53/116/11 54/160/11
