# Blender v2.80 (sub 75) OBJ File: 'patio.blend'
# www.blender.org
mtllib picnicBench.mtl
o Cube.011_Cube.014
v -13.974491 0.508073 -1.175595
v -13.974491 0.374132 -1.175595
v -13.974491 0.508073 1.175595
v -13.974491 0.374132 1.175595
v -14.025509 0.508073 -1.175595
v -14.025509 0.374132 -1.175595
v -14.025509 0.508073 1.175595
v -14.025509 0.374132 1.175595
v -14.061017 0.934199 -0.428130
v -14.061017 0.976210 -0.428130
v -14.061017 0.934199 -0.763144
v -14.061017 0.976210 -0.763144
v -11.352264 0.934199 -0.428130
v -11.352264 0.976210 -0.428130
v -11.352264 0.934199 -0.763144
v -11.352264 0.976210 -0.763144
v -14.061017 0.934199 -0.036720
v -14.061017 0.976210 -0.036720
v -14.061017 0.934199 -0.371734
v -14.061017 0.976210 -0.371734
v -11.352264 0.934199 -0.036720
v -11.352264 0.976210 -0.036720
v -11.352264 0.934199 -0.371734
v -11.352264 0.976210 -0.371734
v -14.061017 0.934199 0.355347
v -14.061017 0.976210 0.355347
v -14.061017 0.934199 0.020333
v -14.061017 0.976210 0.020333
v -11.352264 0.934199 0.355347
v -11.352264 0.976210 0.355347
v -11.352264 0.934199 0.020333
v -11.352264 0.976210 0.020333
v -14.061017 0.934199 0.758411
v -14.061017 0.976210 0.758411
v -14.061017 0.934199 0.423397
v -14.061017 0.976210 0.423397
v -11.352264 0.934199 0.758411
v -11.352264 0.976210 0.758411
v -11.352264 0.934199 0.423397
v -11.352264 0.976210 0.423397
v -13.907388 0.947443 -0.576596
v -13.907388 0.867859 -0.576596
v -13.907388 0.947443 0.596406
v -13.907388 0.867859 0.596406
v -14.020555 0.947443 -0.576596
v -14.020555 0.867859 -0.576596
v -14.020555 0.947443 0.596406
v -14.020555 0.867859 0.596406
v -11.393337 0.947443 -0.576596
v -11.393337 0.867859 -0.576596
v -11.393337 0.947443 0.596406
v -11.393337 0.867859 0.596406
v -11.506505 0.947443 -0.576596
v -11.506505 0.867859 -0.576596
v -11.506505 0.947443 0.596406
v -11.506505 0.867859 0.596406
v -11.391343 0.934710 0.231355
v -11.351261 0.934710 0.231355
v -11.391343 0.932659 0.013157
v -11.351261 0.932659 0.013157
v -11.391343 -0.023392 0.584348
v -11.351260 -0.023392 0.584348
v -11.391343 -0.025443 0.366150
v -11.351260 -0.025443 0.366150
v -11.351260 0.934710 -0.204377
v -11.391343 0.934710 -0.204377
v -11.351260 0.932659 0.013821
v -11.391342 0.932659 0.013821
v -11.351261 -0.023392 -0.557370
v -11.391343 -0.023392 -0.557370
v -11.351261 -0.025443 -0.339172
v -11.391343 -0.025443 -0.339172
v -14.055285 0.934710 0.231355
v -14.015203 0.934710 0.231355
v -14.055285 0.932659 0.013157
v -14.015203 0.932659 0.013157
v -14.055285 -0.023392 0.584348
v -14.015203 -0.023392 0.584348
v -14.055285 -0.025443 0.366150
v -14.015203 -0.025443 0.366150
v -14.015203 0.934710 -0.204377
v -14.055285 0.934710 -0.204377
v -14.015203 0.932659 0.013821
v -14.055285 0.932659 0.013821
v -14.015203 -0.023392 -0.557370
v -14.055285 -0.023392 -0.557370
v -14.015203 -0.025443 -0.339172
v -14.055285 -0.025443 -0.339172
v -14.061017 0.500247 -0.910086
v -14.061017 0.542258 -0.910086
v -14.061017 0.500247 -1.245100
v -14.061017 0.542258 -1.245100
v -11.352264 0.500247 -0.910086
v -11.352264 0.542258 -0.910086
v -11.352264 0.500247 -1.245100
v -11.352264 0.542258 -1.245100
v -14.061017 0.500247 1.241997
v -14.061017 0.542258 1.241997
v -14.061017 0.500247 0.906983
v -14.061017 0.542258 0.906983
v -11.352264 0.500247 1.241997
v -11.352264 0.542258 1.241997
v -11.352264 0.500247 0.906983
v -11.352264 0.542258 0.906983
v -11.375397 0.508073 -1.175595
v -11.375397 0.374132 -1.175595
v -11.375397 0.508073 1.175595
v -11.375397 0.374132 1.175595
v -11.426414 0.508073 -1.175595
v -11.426414 0.374132 -1.175595
v -11.426414 0.508073 1.175595
v -11.426414 0.374132 1.175595
vt 0.625000 0.000000
vt 0.375000 0.000000
vt 0.375000 0.250000
vt 0.625000 0.250000
vt 0.375000 0.500000
vt 0.625000 0.500000
vt 0.375000 0.750000
vt 0.625000 0.750000
vt 0.375000 1.000000
vt 0.125000 0.500000
vt 0.125000 0.750000
vt 0.875000 0.500000
vt 0.625000 0.000000
vt 0.375000 0.000000
vt 0.375000 0.250000
vt 0.625000 0.250000
vt 0.375000 0.500000
vt 0.625000 0.500000
vt 0.375000 0.750000
vt 0.625000 0.750000
vt 0.375000 1.000000
vt 0.125000 0.500000
vt 0.125000 0.750000
vt 0.875000 0.500000
vt 0.625000 0.000000
vt 0.375000 0.000000
vt 0.375000 0.250000
vt 0.625000 0.250000
vt 0.375000 0.500000
vt 0.625000 0.500000
vt 0.375000 0.750000
vt 0.625000 0.750000
vt 0.375000 1.000000
vt 0.125000 0.500000
vt 0.125000 0.750000
vt 0.875000 0.500000
vt 0.625000 0.000000
vt 0.375000 0.000000
vt 0.375000 0.250000
vt 0.625000 0.250000
vt 0.375000 0.500000
vt 0.625000 0.500000
vt 0.375000 0.750000
vt 0.625000 0.750000
vt 0.375000 1.000000
vt 0.125000 0.500000
vt 0.125000 0.750000
vt 0.875000 0.500000
vt 0.625000 0.000000
vt 0.375000 0.000000
vt 0.375000 0.250000
vt 0.625000 0.250000
vt 0.375000 0.500000
vt 0.625000 0.500000
vt 0.375000 0.750000
vt 0.625000 0.750000
vt 0.375000 1.000000
vt 0.125000 0.500000
vt 0.125000 0.750000
vt 0.875000 0.500000
vt 0.625000 0.000000
vt 0.375000 0.000000
vt 0.375000 0.250000
vt 0.625000 0.250000
vt 0.375000 0.500000
vt 0.625000 0.500000
vt 0.375000 0.750000
vt 0.625000 0.750000
vt 0.375000 1.000000
vt 0.125000 0.500000
vt 0.125000 0.750000
vt 0.875000 0.500000
vt 0.625000 0.000000
vt 0.375000 0.000000
vt 0.375000 0.250000
vt 0.625000 0.250000
vt 0.375000 0.500000
vt 0.625000 0.500000
vt 0.375000 0.750000
vt 0.625000 0.750000
vt 0.375000 1.000000
vt 0.125000 0.500000
vt 0.125000 0.750000
vt 0.875000 0.500000
vt 0.625000 0.000000
vt 0.375000 0.000000
vt 0.375000 0.250000
vt 0.625000 0.250000
vt 0.375000 0.500000
vt 0.625000 0.500000
vt 0.375000 0.750000
vt 0.625000 0.750000
vt 0.375000 1.000000
vt 0.125000 0.500000
vt 0.125000 0.750000
vt 0.875000 0.500000
vt 0.375000 0.000000
vt 0.375000 0.250000
vt 0.625000 0.250000
vt 0.375000 0.500000
vt 0.625000 0.500000
vt 0.375000 0.750000
vt 0.625000 0.750000
vt 0.375000 1.000000
vt 0.125000 0.500000
vt 0.125000 0.750000
vt 0.875000 0.500000
vt 0.625000 0.000000
vt 0.375000 0.000000
vt 0.375000 0.250000
vt 0.625000 0.250000
vt 0.375000 0.500000
vt 0.375000 0.750000
vt 0.625000 0.750000
vt 0.375000 1.000000
vt 0.125000 0.500000
vt 0.125000 0.750000
vt 0.875000 0.500000
vt 0.625000 0.500000
vt 0.375000 0.000000
vt 0.375000 0.250000
vt 0.625000 0.250000
vt 0.375000 0.500000
vt 0.625000 0.500000
vt 0.375000 0.750000
vt 0.625000 0.750000
vt 0.375000 1.000000
vt 0.125000 0.500000
vt 0.125000 0.750000
vt 0.875000 0.500000
vt 0.625000 0.000000
vt 0.375000 0.000000
vt 0.375000 0.250000
vt 0.625000 0.250000
vt 0.375000 0.500000
vt 0.625000 0.500000
vt 0.375000 0.750000
vt 0.625000 0.750000
vt 0.375000 1.000000
vt 0.125000 0.500000
vt 0.125000 0.750000
vt 0.875000 0.500000
vt 0.625000 0.000000
vt 0.375000 0.000000
vt 0.375000 0.250000
vt 0.625000 0.250000
vt 0.375000 0.500000
vt 0.625000 0.500000
vt 0.375000 0.750000
vt 0.625000 0.750000
vt 0.375000 1.000000
vt 0.125000 0.500000
vt 0.125000 0.750000
vt 0.875000 0.500000
vt 0.625000 0.000000
vt 0.375000 0.000000
vt 0.375000 0.250000
vt 0.625000 0.250000
vt 0.375000 0.500000
vt 0.625000 0.500000
vt 0.375000 0.750000
vt 0.625000 0.750000
vt 0.375000 1.000000
vt 0.125000 0.500000
vt 0.125000 0.750000
vt 0.875000 0.500000
vt 0.625000 1.000000
vt 0.875000 0.750000
vt 0.625000 1.000000
vt 0.875000 0.750000
vt 0.625000 1.000000
vt 0.875000 0.750000
vt 0.625000 1.000000
vt 0.875000 0.750000
vt 0.625000 1.000000
vt 0.875000 0.750000
vt 0.625000 1.000000
vt 0.875000 0.750000
vt 0.625000 1.000000
vt 0.875000 0.750000
vt 0.625000 1.000000
vt 0.875000 0.750000
vt 0.625000 0.000000
vt 0.625000 1.000000
vt 0.875000 0.750000
vt 0.625000 1.000000
vt 0.875000 0.750000
vt 0.625000 0.000000
vt 0.625000 1.000000
vt 0.875000 0.750000
vt 0.625000 1.000000
vt 0.875000 0.750000
vt 0.625000 1.000000
vt 0.875000 0.750000
vt 0.625000 1.000000
vt 0.875000 0.750000
vn 1.0000 0.0000 0.0000
vn 0.0000 0.0000 1.0000
vn -1.0000 0.0000 0.0000
vn 0.0000 0.0000 -1.0000
vn 0.0000 1.0000 0.0000
vn 0.0000 -1.0000 0.0000
vn 0.0000 -1.0000 0.0094
vn 0.0000 0.3457 0.9383
vn 0.0000 1.0000 -0.0094
vn 0.0000 -0.3457 -0.9383
vn 0.0000 -1.0000 -0.0094
vn 0.0000 0.3457 -0.9383
vn 0.0000 1.0000 0.0094
vn 0.0000 -0.3457 0.9383
vn 0.0000 0.3457 0.9384
usemtl None
s off
f 2/1/1 1/2/1 3/3/1
f 4/4/2 3/3/2 7/5/2
f 8/6/3 7/5/3 5/7/3
f 6/8/4 5/7/4 1/9/4
f 7/5/5 3/10/5 1/11/5
f 4/12/6 8/6/6 6/8/6
f 10/13/1 9/14/1 11/15/1
f 12/16/2 11/15/2 15/17/2
f 16/18/3 15/17/3 13/19/3
f 14/20/4 13/19/4 9/21/4
f 15/17/5 11/22/5 9/23/5
f 12/24/6 16/18/6 14/20/6
f 18/25/1 17/26/1 19/27/1
f 20/28/2 19/27/2 23/29/2
f 24/30/3 23/29/3 21/31/3
f 22/32/4 21/31/4 17/33/4
f 23/29/5 19/34/5 17/35/5
f 20/36/6 24/30/6 22/32/6
f 26/37/1 25/38/1 27/39/1
f 28/40/2 27/39/2 31/41/2
f 32/42/3 31/41/3 29/43/3
f 30/44/4 29/43/4 25/45/4
f 31/41/5 27/46/5 25/47/5
f 28/48/6 32/42/6 30/44/6
f 34/49/1 33/50/1 35/51/1
f 36/52/2 35/51/2 39/53/2
f 40/54/3 39/53/3 37/55/3
f 38/56/4 37/55/4 33/57/4
f 39/53/5 35/58/5 33/59/5
f 36/60/6 40/54/6 38/56/6
f 42/61/1 41/62/1 43/63/1
f 44/64/2 43/63/2 47/65/2
f 48/66/3 47/65/3 45/67/3
f 46/68/4 45/67/4 41/69/4
f 47/65/5 43/70/5 41/71/5
f 44/72/6 48/66/6 46/68/6
f 50/73/1 49/74/1 51/75/1
f 52/76/2 51/75/2 55/77/2
f 56/78/3 55/77/3 53/79/3
f 54/80/4 53/79/4 49/81/4
f 55/77/5 51/82/5 49/83/5
f 52/84/6 56/78/6 54/80/6
f 58/85/7 57/86/7 59/87/7
f 60/88/8 59/87/8 63/89/8
f 64/90/9 63/89/9 61/91/9
f 62/92/10 61/91/10 57/93/10
f 59/94/1 57/95/1 61/91/1
f 60/96/3 64/90/3 62/92/3
f 65/97/11 67/98/11 68/99/11
f 68/99/12 67/98/12 71/100/12
f 72/101/13 71/100/13 69/102/13
f 70/103/14 69/102/14 65/104/14
f 67/105/3 65/106/3 69/102/3
f 68/107/1 72/101/1 70/103/1
f 74/108/7 73/109/7 75/110/7
f 76/111/8 75/110/8 79/112/8
f 79/112/9 77/113/9 78/114/9
f 78/114/10 77/113/10 73/115/10
f 75/116/1 73/117/1 77/113/1
f 76/118/3 80/119/3 78/114/3
f 81/120/11 83/121/11 84/122/11
f 84/122/12 83/121/12 87/123/12
f 88/124/13 87/123/13 85/125/13
f 86/126/14 85/125/14 81/127/14
f 83/128/3 81/129/3 85/125/3
f 84/130/1 88/124/1 86/126/1
f 90/131/1 89/132/1 91/133/1
f 92/134/2 91/133/2 95/135/2
f 96/136/3 95/135/3 93/137/3
f 94/138/4 93/137/4 89/139/4
f 95/135/5 91/140/5 89/141/5
f 92/142/6 96/136/6 94/138/6
f 98/143/1 97/144/1 99/145/1
f 100/146/2 99/145/2 103/147/2
f 104/148/3 103/147/3 101/149/3
f 102/150/4 101/149/4 97/151/4
f 103/147/5 99/152/5 97/153/5
f 100/154/6 104/148/6 102/150/6
f 106/155/1 105/156/1 107/157/1
f 108/158/2 107/157/2 111/159/2
f 112/160/3 111/159/3 109/161/3
f 110/162/4 109/161/4 105/163/4
f 111/159/5 107/164/5 105/165/5
f 108/166/6 112/160/6 110/162/6
f 2/1/1 3/3/1 4/4/1
f 4/4/2 7/5/2 8/6/2
f 8/6/3 5/7/3 6/8/3
f 6/8/4 1/9/4 2/167/4
f 7/5/5 1/11/5 5/7/5
f 4/12/6 6/8/6 2/168/6
f 10/13/1 11/15/1 12/16/1
f 12/16/2 15/17/2 16/18/2
f 16/18/3 13/19/3 14/20/3
f 14/20/4 9/21/4 10/169/4
f 15/17/5 9/23/5 13/19/5
f 12/24/6 14/20/6 10/170/6
f 18/25/1 19/27/1 20/28/1
f 20/28/2 23/29/2 24/30/2
f 24/30/3 21/31/3 22/32/3
f 22/32/4 17/33/4 18/171/4
f 23/29/5 17/35/5 21/31/5
f 20/36/6 22/32/6 18/172/6
f 26/37/1 27/39/1 28/40/1
f 28/40/2 31/41/2 32/42/2
f 32/42/3 29/43/3 30/44/3
f 30/44/4 25/45/4 26/173/4
f 31/41/5 25/47/5 29/43/5
f 28/48/6 30/44/6 26/174/6
f 34/49/1 35/51/1 36/52/1
f 36/52/2 39/53/2 40/54/2
f 40/54/3 37/55/3 38/56/3
f 38/56/4 33/57/4 34/175/4
f 39/53/5 33/59/5 37/55/5
f 36/60/6 38/56/6 34/176/6
f 42/61/1 43/63/1 44/64/1
f 44/64/2 47/65/2 48/66/2
f 48/66/3 45/67/3 46/68/3
f 46/68/4 41/69/4 42/177/4
f 47/65/5 41/71/5 45/67/5
f 44/72/6 46/68/6 42/178/6
f 50/73/1 51/75/1 52/76/1
f 52/76/2 55/77/2 56/78/2
f 56/78/3 53/79/3 54/80/3
f 54/80/4 49/81/4 50/179/4
f 55/77/5 49/83/5 53/79/5
f 52/84/6 54/80/6 50/180/6
f 58/85/7 59/87/7 60/88/7
f 60/88/15 63/89/15 64/90/15
f 64/90/9 61/91/9 62/92/9
f 62/92/10 57/93/10 58/181/10
f 59/94/1 61/91/1 63/89/1
f 60/96/3 62/92/3 58/182/3
f 65/97/11 68/99/11 66/183/11
f 68/99/12 71/100/12 72/101/12
f 72/101/13 69/102/13 70/103/13
f 70/103/14 65/104/14 66/184/14
f 67/105/3 69/102/3 71/100/3
f 68/107/1 70/103/1 66/185/1
f 74/108/7 75/110/7 76/111/7
f 76/111/8 79/112/8 80/119/8
f 79/112/9 78/114/9 80/119/9
f 78/114/10 73/115/10 74/186/10
f 75/116/1 77/113/1 79/112/1
f 76/118/3 78/114/3 74/187/3
f 81/120/11 84/122/11 82/188/11
f 84/122/12 87/123/12 88/124/12
f 88/124/13 85/125/13 86/126/13
f 86/126/14 81/127/14 82/189/14
f 83/128/3 85/125/3 87/123/3
f 84/130/1 86/126/1 82/190/1
f 90/131/1 91/133/1 92/134/1
f 92/134/2 95/135/2 96/136/2
f 96/136/3 93/137/3 94/138/3
f 94/138/4 89/139/4 90/191/4
f 95/135/5 89/141/5 93/137/5
f 92/142/6 94/138/6 90/192/6
f 98/143/1 99/145/1 100/146/1
f 100/146/2 103/147/2 104/148/2
f 104/148/3 101/149/3 102/150/3
f 102/150/4 97/151/4 98/193/4
f 103/147/5 97/153/5 101/149/5
f 100/154/6 102/150/6 98/194/6
f 106/155/1 107/157/1 108/158/1
f 108/158/2 111/159/2 112/160/2
f 112/160/3 109/161/3 110/162/3
f 110/162/4 105/163/4 106/195/4
f 111/159/5 105/165/5 109/161/5
f 108/166/6 110/162/6 106/196/6
