# Blender v2.80 (sub 75) OBJ File: 'roadPieces.blend'
# www.blender.org
mtllib RMiddlePiece.mtl
o Cube.015
v -6.590726 0.136408 6.768006
v -6.590738 0.136408 -5.208650
v -3.590727 0.136408 6.768003
v -3.590727 0.136408 -5.208652
v -6.243959 0.136408 6.768006
v -6.243971 0.136408 -5.208650
v -6.465311 0.136408 6.768006
v -6.465322 0.136408 -5.208650
v -6.590738 0.136408 -5.095633
v -3.590727 0.136408 -5.095635
v -6.243970 0.136408 -5.095633
v -6.465322 0.136408 -5.095633
v -3.590727 0.136408 -4.871464
v -6.243970 0.136408 -4.871461
v -6.465322 0.136408 -4.871461
v -6.590738 0.136408 -4.871461
v -3.590727 0.136408 6.432198
v -6.243959 0.136408 6.432201
v -6.465311 0.136408 6.432201
v -6.590727 0.136408 6.432201
v -3.590727 0.136408 6.646102
v -6.243959 0.136408 6.646105
v -6.465311 0.136408 6.646105
v -6.590726 0.136408 6.646105
vt 0.652731 0.000000
vt 0.666667 0.057321
vt 0.652731 0.057321
vt 0.333333 0.000000
vt 0.628137 0.057321
vt 0.333333 0.057321
vt 0.628137 0.000000
vt 0.652731 0.089000
vt 0.628137 0.089000
vt 0.333333 0.089000
vt 0.666667 0.089000
vt 0.666667 0.949005
vt 0.652731 0.949005
vt 0.333333 0.949005
vt 0.628137 0.949005
vt 0.652731 0.974503
vt 0.628137 0.974503
vt 0.333333 0.974503
vt 0.666667 0.974503
vt 0.666667 1.000000
vt 0.652731 1.000000
vt 0.628137 1.000000
vt 0.333333 1.000000
vt 0.666667 0.000000
vn 0.0000 1.0000 0.0000
usemtl Material.006
s off
f 8/1/1 9/2/1 12/3/1
f 4/4/1 11/5/1 10/6/1
f 6/7/1 12/3/1 11/5/1
f 11/5/1 15/8/1 14/9/1
f 10/6/1 14/9/1 13/10/1
f 12/3/1 16/11/1 15/8/1
f 15/8/1 20/12/1 19/13/1
f 17/14/1 14/9/1 18/15/1
f 14/9/1 19/13/1 18/15/1
f 18/15/1 23/16/1 22/17/1
f 17/14/1 22/17/1 21/18/1
f 19/13/1 24/19/1 23/16/1
f 23/16/1 1/20/1 7/21/1
f 21/18/1 5/22/1 3/23/1
f 22/17/1 7/21/1 5/22/1
f 8/1/1 2/24/1 9/2/1
f 4/4/1 6/7/1 11/5/1
f 6/7/1 8/1/1 12/3/1
f 11/5/1 12/3/1 15/8/1
f 10/6/1 11/5/1 14/9/1
f 12/3/1 9/2/1 16/11/1
f 15/8/1 16/11/1 20/12/1
f 17/14/1 13/10/1 14/9/1
f 14/9/1 15/8/1 19/13/1
f 18/15/1 19/13/1 23/16/1
f 17/14/1 18/15/1 22/17/1
f 19/13/1 20/12/1 24/19/1
f 23/16/1 24/19/1 1/20/1
f 21/18/1 22/17/1 5/22/1
f 22/17/1 23/16/1 7/21/1
