# Blender v2.80 (sub 75) OBJ File: 'roadPieces.blend'
# www.blender.org
mtllib SCornerPiece.mtl
o Cube.010_Cube.002
v -15.366994 0.155308 -1.031209
v -15.366994 0.155308 1.968792
v -18.366993 0.155308 1.968792
v -15.976821 0.155308 -1.026951
v -18.366993 0.155308 1.341931
v -16.608072 0.155308 -0.950345
v -17.180426 0.155308 -0.713269
v -17.671921 0.155308 -0.336134
v -18.049053 0.155308 0.155362
v -18.286129 0.155308 0.727715
v -17.031853 0.155308 -0.451622
v -15.366994 0.155308 -0.732861
v -18.038364 0.155308 1.363692
v -18.047783 0.155308 1.969010
v -17.455570 0.155308 -0.115131
v -15.946254 0.155308 -0.739871
v -17.776134 0.155308 0.318303
v -16.516720 0.155308 -0.663464
v -17.977398 0.155308 0.804276
vt 0.478150 0.752654
vt 0.525028 0.722125
vt 0.531871 0.752654
vt 0.478150 0.512971
vt 0.709676 0.512971
vt 0.709518 0.558042
vt 0.735244 0.563053
vt 0.700487 0.601096
vt 0.728314 0.612126
vt 0.683540 0.642437
vt 0.675677 0.697122
vt 0.707997 0.657854
vt 0.633557 0.727253
vt 0.650060 0.673238
vt 0.572323 0.719475
vt 0.613775 0.699976
vt 0.584508 0.746194
vt 0.735244 0.512971
vt 0.478150 0.721708
vn 0.0000 1.0000 0.0000
usemtl Material.004
s off
f 3/1/1 13/2/1 5/3/1
f 2/4/1 12/5/1 16/6/1
f 4/7/1 18/8/1 16/6/1
f 6/9/1 11/10/1 18/8/1
f 8/11/1 11/10/1 7/12/1
f 9/13/1 15/14/1 8/11/1
f 9/13/1 19/15/1 17/16/1
f 5/3/1 19/15/1 10/17/1
f 17/16/1 19/15/1 2/4/1
f 18/8/1 11/10/1 2/4/1
f 19/15/1 13/2/1 2/4/1
f 11/10/1 15/14/1 2/4/1
f 16/6/1 1/18/1 4/7/1
f 15/14/1 17/16/1 2/4/1
f 16/6/1 18/8/1 2/4/1
f 13/2/1 14/19/1 2/4/1
f 3/1/1 14/19/1 13/2/1
f 4/7/1 6/9/1 18/8/1
f 6/9/1 7/12/1 11/10/1
f 8/11/1 15/14/1 11/10/1
f 9/13/1 17/16/1 15/14/1
f 9/13/1 10/17/1 19/15/1
f 5/3/1 13/2/1 19/15/1
f 16/6/1 12/5/1 1/18/1
