# Blender v2.80 (sub 75) OBJ File: 'roadPieces.blend'
# www.blender.org
mtllib SSidePiece.mtl
o Cube.012_Cube.008
v -11.096353 0.136409 -0.567238
v -13.793468 0.136409 -0.567238
v -14.096347 0.136409 -0.567238
v -11.096353 0.136409 0.026847
v -13.793468 0.136409 0.026847
v -14.096347 0.136409 0.026847
v -11.096353 0.136409 0.483581
v -13.793468 0.136409 0.483581
v -14.096347 0.136409 0.483581
v -11.096353 0.136409 0.916270
v -13.793468 0.136409 0.916270
v -14.096347 0.136409 0.916270
v -13.793468 0.136409 1.531654
v -14.096347 0.136409 1.531654
v -11.096353 0.136409 1.531654
v -13.793468 0.136409 1.983581
v -13.793468 0.136409 -1.016419
v -11.096353 0.136409 1.983581
v -14.096347 0.136409 1.983581
v -11.096353 0.136409 -1.016419
v -14.096347 0.136409 -1.016419
vt 0.708392 0.045553
vt 0.491640 0.009455
vt 0.708392 0.009455
vt 0.732733 0.045553
vt 0.732733 0.009455
vt 0.732733 0.093296
vt 0.708392 0.093296
vt 0.491640 0.045553
vt 0.708392 0.130001
vt 0.491640 0.093296
vt 0.732733 0.130001
vt 0.732733 0.164774
vt 0.708392 0.164774
vt 0.491640 0.130001
vt 0.708392 0.214229
vt 0.491640 0.164774
vt 0.732733 0.214229
vt 0.732733 0.250547
vt 0.708392 0.250547
vt 0.491640 0.214229
vt 0.491640 0.250547
vn 0.0000 1.0000 0.0000
usemtl Material.002
s off
f 2/1/1 20/2/1 17/3/1
f 3/4/1 17/3/1 21/5/1
f 6/6/1 2/1/1 3/4/1
f 5/7/1 1/8/1 2/1/1
f 8/9/1 4/10/1 5/7/1
f 9/11/1 5/7/1 6/6/1
f 12/12/1 8/9/1 9/11/1
f 11/13/1 7/14/1 8/9/1
f 13/15/1 10/16/1 11/13/1
f 14/17/1 11/13/1 12/12/1
f 19/18/1 13/15/1 14/17/1
f 16/19/1 15/20/1 13/15/1
f 2/1/1 1/8/1 20/2/1
f 3/4/1 2/1/1 17/3/1
f 6/6/1 5/7/1 2/1/1
f 5/7/1 4/10/1 1/8/1
f 8/9/1 7/14/1 4/10/1
f 9/11/1 8/9/1 5/7/1
f 12/12/1 11/13/1 8/9/1
f 11/13/1 10/16/1 7/14/1
f 13/15/1 15/20/1 10/16/1
f 14/17/1 13/15/1 11/13/1
f 19/18/1 16/19/1 13/15/1
f 16/19/1 18/21/1 15/20/1
