# Blender v2.80 (sub 75) OBJ File: 'heathPack.blend'
# www.blender.org
mtllib healthOut.mtl
o Cylinder.002_Cylinder.003
v -0.345471 1.484991 -0.638091
v -0.105212 1.622563 -0.574900
v 0.087460 1.732886 -0.397843
v 0.194385 1.794111 -0.141989
v 0.194385 1.794111 0.141989
v 0.087460 1.732886 0.397843
v -0.105212 1.622563 0.574900
v -0.345471 1.484991 0.638091
v -0.585729 1.347420 0.574900
v -0.778401 1.237096 0.397843
v -0.885326 1.175870 0.141989
v -0.885326 1.175870 -0.141989
v -0.778401 1.237096 -0.397843
v -0.585729 1.347420 -0.574900
v 0.582543 0.421450 -0.574900
v 0.775215 0.531774 -0.397843
v 0.882140 0.592999 -0.141989
v 0.882140 0.592999 0.141989
v 0.775215 0.531774 0.397843
v 0.582543 0.421450 0.574900
v 0.342285 0.283878 0.638091
v 0.102027 0.146307 0.574900
v -0.090646 0.035983 0.397843
v -0.197571 -0.025242 0.141989
v -0.197571 -0.025242 -0.141989
v -0.090646 0.035983 -0.397843
v 0.102027 0.146307 -0.574900
v 0.342285 0.283878 -0.638091
v 0.337792 0.291724 -0.638091
v 0.578051 0.429296 -0.574900
v 0.770723 0.539619 -0.397843
v 0.877648 0.600845 -0.141989
v 0.877648 0.600845 0.141989
v 0.770723 0.539619 0.397843
v 0.578051 0.429296 0.574900
v 0.337793 0.291724 0.638091
v 0.097534 0.154153 0.574900
v -0.095138 0.043829 0.397843
v -0.202063 -0.017397 0.141989
v -0.202063 -0.017397 -0.141989
v -0.095138 0.043829 -0.397843
v 0.097534 0.154153 -0.574900
v -0.338755 1.473263 -0.638091
v -0.098497 1.610834 -0.574900
v 0.094175 1.721158 -0.397843
v 0.201100 1.782383 -0.141989
v 0.201100 1.782383 0.141989
v 0.094175 1.721158 0.397843
v -0.098497 1.610834 0.574900
v -0.338755 1.473263 0.638091
v -0.579013 1.335691 0.574900
v -0.771686 1.225367 0.397843
v -0.878611 1.164142 0.141989
v -0.878611 1.164142 -0.141989
v -0.771686 1.225367 -0.397843
v -0.579013 1.335691 -0.574900
vt 0.633546 0.642154
vt 0.635247 0.588659
vt 0.635247 0.642154
vt 0.633546 0.695648
vt 0.635247 0.695648
vt 0.633546 0.749143
vt 0.635247 0.749143
vt 0.633546 0.053713
vt 0.635248 0.000218
vt 0.635247 0.053713
vt 0.633546 0.107208
vt 0.635247 0.107208
vt 0.633546 0.160702
vt 0.635247 0.160702
vt 0.633546 0.214197
vt 0.635247 0.214197
vt 0.633546 0.267691
vt 0.635247 0.267691
vt 0.633546 0.321186
vt 0.635247 0.321186
vt 0.633546 0.374681
vt 0.635247 0.374681
vt 0.633546 0.428175
vt 0.635247 0.428175
vt 0.633546 0.481670
vt 0.635247 0.481670
vt 0.633546 0.535164
vt 0.635247 0.535164
vt 0.633546 0.588659
vt 0.806694 0.588659
vt 0.807832 0.535164
vt 0.807832 0.588659
vt 0.806694 0.535164
vt 0.807832 0.481670
vt 0.806694 0.481670
vt 0.807832 0.428175
vt 0.806694 0.428175
vt 0.807832 0.374681
vt 0.806694 0.374681
vt 0.807832 0.321186
vt 0.806694 0.321186
vt 0.807832 0.267691
vt 0.806694 0.267691
vt 0.807832 0.214197
vt 0.806694 0.214197
vt 0.807832 0.160702
vt 0.806694 0.160702
vt 0.807832 0.107208
vt 0.806694 0.107208
vt 0.807832 0.053713
vt 0.806694 0.053713
vt 0.807832 0.000219
vt 0.806694 0.749143
vt 0.807832 0.695648
vt 0.807832 0.749143
vt 0.806694 0.695648
vt 0.807832 0.642154
vt 0.806694 0.000219
vt 0.806694 0.642154
vt 0.633546 0.000218
vn -0.3765 -0.2156 -0.9010
vn 0.0000 0.0000 -1.0000
vn -0.6785 -0.3885 -0.6235
vn -0.8460 -0.4844 -0.2225
vn -0.8460 -0.4844 0.2225
vn -0.6785 -0.3885 0.6235
vn -0.3765 -0.2156 0.9010
vn 0.0000 0.0000 1.0000
vn 0.3765 0.2156 0.9010
vn 0.6785 0.3885 0.6235
vn 0.8460 0.4844 0.2225
vn 0.8460 0.4844 -0.2225
vn 0.6785 0.3885 -0.6235
vn 0.3765 0.2156 -0.9010
usemtl Material.001
s 1
f 14/1/1 43/2/2 56/3/1
f 13/4/3 56/3/1 55/5/3
f 12/6/4 55/5/3 54/7/4
f 11/8/5 54/9/4 53/10/5
f 10/11/6 53/10/5 52/12/6
f 9/13/7 52/12/6 51/14/7
f 8/15/8 51/14/7 50/16/8
f 7/17/9 50/16/8 49/18/9
f 6/19/10 49/18/9 48/20/10
f 5/21/11 48/20/10 47/22/11
f 4/23/12 47/22/11 46/24/12
f 3/25/13 46/24/12 45/26/13
f 2/27/14 45/26/13 44/28/14
f 1/29/2 44/28/14 43/2/2
f 29/30/2 15/31/14 28/32/2
f 30/33/14 16/34/13 15/31/14
f 31/35/13 17/36/12 16/34/13
f 32/37/12 18/38/11 17/36/12
f 33/39/11 19/40/10 18/38/11
f 34/41/10 20/42/9 19/40/10
f 35/43/9 21/44/8 20/42/9
f 36/45/8 22/46/7 21/44/8
f 37/47/7 23/48/6 22/46/7
f 38/49/6 24/50/5 23/48/6
f 39/51/5 25/52/4 24/50/5
f 40/53/4 26/54/3 25/55/4
f 41/56/3 27/57/1 26/54/3
f 27/57/1 29/30/2 28/32/2
f 43/2/2 30/33/14 29/30/2
f 44/28/14 31/35/13 30/33/14
f 45/26/13 32/37/12 31/35/13
f 46/24/12 33/39/11 32/37/12
f 47/22/11 34/41/10 33/39/11
f 48/20/10 35/43/9 34/41/10
f 49/18/9 36/45/8 35/43/9
f 50/16/8 37/47/7 36/45/8
f 51/14/7 38/49/6 37/47/7
f 52/12/6 39/51/5 38/49/6
f 53/10/5 40/58/4 39/51/5
f 54/7/4 41/56/3 40/53/4
f 55/5/3 42/59/1 41/56/3
f 56/3/1 29/30/2 42/59/1
f 14/1/1 1/29/2 43/2/2
f 13/4/3 14/1/1 56/3/1
f 12/6/4 13/4/3 55/5/3
f 11/8/5 12/60/4 54/9/4
f 10/11/6 11/8/5 53/10/5
f 9/13/7 10/11/6 52/12/6
f 8/15/8 9/13/7 51/14/7
f 7/17/9 8/15/8 50/16/8
f 6/19/10 7/17/9 49/18/9
f 5/21/11 6/19/10 48/20/10
f 4/23/12 5/21/11 47/22/11
f 3/25/13 4/23/12 46/24/12
f 2/27/14 3/25/13 45/26/13
f 1/29/2 2/27/14 44/28/14
f 29/30/2 30/33/14 15/31/14
f 30/33/14 31/35/13 16/34/13
f 31/35/13 32/37/12 17/36/12
f 32/37/12 33/39/11 18/38/11
f 33/39/11 34/41/10 19/40/10
f 34/41/10 35/43/9 20/42/9
f 35/43/9 36/45/8 21/44/8
f 36/45/8 37/47/7 22/46/7
f 37/47/7 38/49/6 23/48/6
f 38/49/6 39/51/5 24/50/5
f 39/51/5 40/58/4 25/52/4
f 40/53/4 41/56/3 26/54/3
f 41/56/3 42/59/1 27/57/1
f 27/57/1 42/59/1 29/30/2
f 43/2/2 44/28/14 30/33/14
f 44/28/14 45/26/13 31/35/13
f 45/26/13 46/24/12 32/37/12
f 46/24/12 47/22/11 33/39/11
f 47/22/11 48/20/10 34/41/10
f 48/20/10 49/18/9 35/43/9
f 49/18/9 50/16/8 36/45/8
f 50/16/8 51/14/7 37/47/7
f 51/14/7 52/12/6 38/49/6
f 52/12/6 53/10/5 39/51/5
f 53/10/5 54/9/4 40/58/4
f 54/7/4 55/5/3 41/56/3
f 55/5/3 56/3/1 42/59/1
f 56/3/1 43/2/2 29/30/2
