# Blender v2.80 (sub 75) OBJ File: 'patio.blend'
# www.blender.org
mtllib potHole.mtl
o Cylinder.003_Cylinder.009
v -2.609624 0.002471 -0.358233
v -2.609624 0.025108 -0.319776
v -2.430507 0.002471 -0.310239
v -2.449736 0.025108 -0.276934
v -2.299385 0.002471 -0.179116
v -2.332690 0.025108 -0.159888
v -2.251391 0.002471 0.000000
v -2.289847 0.025108 0.000000
v -2.299385 0.002471 0.179117
v -2.332690 0.025108 0.159888
v -2.430507 0.002471 0.310239
v -2.449736 0.025108 0.276934
v -2.609624 0.002471 0.358233
v -2.609624 0.025108 0.319776
v -2.788740 0.002471 0.310239
v -2.769512 0.025108 0.276935
v -2.919863 0.002471 0.179117
v -2.886558 0.025108 0.159888
v -2.967857 0.002471 0.000000
v -2.929400 0.025108 0.000000
v -2.919863 0.002471 -0.179116
v -2.886559 0.025108 -0.159888
v -2.788741 0.002471 -0.310239
v -2.769512 0.025108 -0.276934
v -2.430507 0.025108 -0.310239
v -2.609624 0.025108 -0.358233
v -2.299385 0.025108 -0.179116
v -2.251391 0.025108 0.000000
v -2.299385 0.025108 0.179117
v -2.430507 0.025108 0.310239
v -2.609624 0.025108 0.358233
v -2.788740 0.025108 0.310239
v -2.919863 0.025108 0.179117
v -2.967857 0.025108 0.000000
v -2.919863 0.025108 -0.179116
v -2.788741 0.025108 -0.310239
v -2.463815 0.040663 -0.239984
v -2.615906 0.040663 -0.280737
v -2.369640 0.040663 -0.145809
v -2.328887 0.040663 0.006282
v -2.363358 0.040663 0.134928
v -2.474696 0.040663 0.246266
v -2.603342 0.040663 0.280737
v -2.755433 0.040663 0.239984
v -2.849608 0.040663 0.145809
v -2.890361 0.040663 -0.006282
v -2.855890 0.040663 -0.134928
v -2.744552 0.040663 -0.246266
v -2.609624 0.040663 0.000000
v -2.449736 0.040663 -0.276934
v -2.609624 0.040663 -0.319776
v -2.332690 0.040663 -0.159888
v -2.289847 0.040663 0.000000
v -2.332690 0.040663 0.159888
v -2.449736 0.040663 0.276934
v -2.609624 0.040663 0.319776
v -2.769512 0.040663 0.276935
v -2.886558 0.040663 0.159888
v -2.929400 0.040663 0.000000
v -2.886559 0.040663 -0.159888
v -2.769512 0.040663 -0.276934
v -2.477942 0.040663 -0.215516
v -2.615906 0.040663 -0.252483
v -2.394108 0.040663 -0.131682
v -2.357140 0.040663 0.006282
v -2.387826 0.040663 0.120801
v -2.488822 0.040663 0.221798
v -2.603342 0.040663 0.252484
v -2.741306 0.040663 0.215516
v -2.825140 0.040663 0.131682
v -2.862108 0.040663 -0.006282
v -2.831422 0.040663 -0.120801
v -2.730426 0.040663 -0.221798
v -2.359409 0.040663 -0.144462
v -2.465162 0.040663 -0.250215
v -2.359409 0.040663 0.144462
v -2.320700 0.040663 0.000000
v -2.609624 0.040663 0.288924
v -2.465162 0.040663 0.250215
v -2.859839 0.040663 0.144462
v -2.754086 0.040663 0.250215
v -2.859839 0.040663 -0.144462
v -2.898547 0.040663 0.000000
v -2.609624 0.040663 -0.288923
v -2.754086 0.040663 -0.250215
v -2.395141 0.040663 -0.123832
v -2.485792 0.040663 -0.214483
v -2.395141 0.040663 0.123832
v -2.361961 0.040663 0.000000
v -2.609624 0.040663 0.247663
v -2.485792 0.040663 0.214483
v -2.824106 0.040663 0.123832
v -2.733455 0.040663 0.214483
v -2.824107 0.040663 -0.123831
v -2.857287 0.040663 0.000000
v -2.609624 0.040663 -0.247663
v -2.733456 0.040663 -0.214483
v -2.369640 0.031322 -0.145809
v -2.463815 0.031322 -0.239984
v -2.363358 0.031322 0.134928
v -2.328887 0.031322 0.006282
v -2.603342 0.031322 0.280737
v -2.474696 0.031322 0.246266
v -2.849608 0.031322 0.145809
v -2.755433 0.031322 0.239984
v -2.855890 0.031322 -0.134928
v -2.890361 0.031322 -0.006282
v -2.615906 0.031322 -0.280737
v -2.744552 0.031322 -0.246266
v -2.394108 0.031322 -0.131682
v -2.477942 0.031322 -0.215516
v -2.387826 0.031322 0.120801
v -2.357140 0.031322 0.006282
v -2.603342 0.031322 0.252484
v -2.488822 0.031322 0.221798
v -2.825140 0.031322 0.131682
v -2.741306 0.031322 0.215516
v -2.831422 0.031322 -0.120801
v -2.862108 0.031322 -0.006282
v -2.615906 0.031322 -0.252483
v -2.730426 0.031322 -0.221798
vt 1.000000 1.000000
vt 0.916667 0.500000
vt 1.000000 0.500000
vt 0.916667 1.000000
vt 0.833333 0.500000
vt 0.833333 1.000000
vt 0.750000 0.500000
vt 0.750000 1.000000
vt 0.666667 0.500000
vt 0.666667 1.000000
vt 0.583333 0.500000
vt 0.583333 1.000000
vt 0.500000 0.500000
vt 0.500000 1.000000
vt 0.416667 0.500000
vt 0.416667 1.000000
vt 0.333333 0.500000
vt 0.333333 1.000000
vt 0.250000 0.500000
vt 0.250000 1.000000
vt 0.166667 0.500000
vt 0.250000 0.464236
vt 0.357118 0.435534
vt 0.357118 0.435534
vt 0.166667 1.000000
vt 0.083333 0.500000
vt 0.083333 1.000000
vt 0.000000 0.500000
vt 0.990000 0.250000
vt 0.630000 0.042154
vt 0.630000 0.457846
vt 0.250000 0.490000
vt 0.435534 0.357118
vt 0.370000 0.457846
vt 0.490000 0.250000
vt 0.457846 0.370000
vt 0.435534 0.142882
vt 0.464236 0.250000
vt 0.370000 0.042154
vt 0.457846 0.130000
vt 0.250000 0.035764
vt 0.357118 0.064466
vt 0.130000 0.042154
vt 0.250000 0.010000
vt 0.064466 0.142882
vt 0.142882 0.064466
vt 0.010000 0.250000
vt 0.042154 0.130000
vt 0.064466 0.357118
vt 0.035764 0.250000
vt 0.142882 0.435534
vt 0.042154 0.370000
vt 0.130000 0.457846
vt 0.332962 0.393694
vt 0.250000 0.250000
vt 0.393694 0.332962
vt 0.064466 0.142882
vt 0.357118 0.064466
vt 0.250000 0.464236
vt 0.435534 0.357118
vt 0.035764 0.250000
vt 0.250000 0.035764
vt 0.464236 0.250000
vt 0.064466 0.357118
vt 0.142882 0.064466
vt 0.435534 0.142882
vt 0.142882 0.435534
vt 0.250000 0.084077
vt 0.167038 0.106306
vt 0.084077 0.250000
vt 0.106306 0.332962
vt 0.415923 0.250000
vt 0.393694 0.167038
vt 0.106306 0.167038
vt 0.250000 0.415923
vt 0.167038 0.393694
vt 0.332962 0.106306
vt 0.346783 0.417633
vt 0.250000 0.443566
vt 0.417633 0.346783
vt 0.443566 0.250000
vt 0.417633 0.153217
vt 0.346783 0.082367
vt 0.250000 0.056434
vt 0.153217 0.082367
vt 0.082367 0.153217
vt 0.056434 0.250000
vt 0.082367 0.346783
vt 0.153217 0.417633
vt 0.245791 0.438081
vt 0.245791 0.419153
vt 0.245791 0.419153
vt 0.161779 0.105614
vt 0.152315 0.089221
vt 0.152315 0.089221
vt 0.061919 0.254208
vt 0.085013 0.340396
vt 0.085013 0.340396
vt 0.169068 0.398595
vt 0.169068 0.398595
vt 0.254209 0.061919
vt 0.254209 0.080847
vt 0.254209 0.080847
vt 0.089221 0.152315
vt 0.089221 0.152315
vt 0.410779 0.347685
vt 0.347685 0.410779
vt 0.414987 0.159604
vt 0.438081 0.245791
vt 0.340396 0.085013
vt 0.159604 0.414987
vt 0.338221 0.394386
vt 0.394386 0.338221
vt 0.419153 0.245791
vt 0.398595 0.169068
vt 0.330932 0.101405
vt 0.105614 0.161779
vt 0.101405 0.330931
vt 0.080847 0.254209
vt 0.394386 0.338221
vt 0.347685 0.410779
vt 0.338221 0.394386
vt 0.398595 0.169068
vt 0.438081 0.245791
vt 0.419153 0.245791
vt 0.340396 0.085013
vt 0.330932 0.101405
vt 0.161779 0.105614
vt 0.101405 0.330931
vt 0.061919 0.254208
vt 0.080847 0.254209
vt 0.245791 0.438081
vt 0.159604 0.414987
vt 0.105614 0.161779
vt 0.410779 0.347685
vt 0.414987 0.159604
vt 0.254209 0.061919
vt 0.000000 1.000000
vt 0.750000 0.490000
vt 0.870000 0.457846
vt 0.957846 0.370000
vt 0.957846 0.130000
vt 0.870000 0.042154
vt 0.750000 0.010000
vt 0.542154 0.130000
vt 0.510000 0.250000
vt 0.542154 0.370000
vn -0.0000 0.0000 -1.0000
vn 0.5000 0.0000 -0.8660
vn 0.8660 0.0000 -0.5000
vn 1.0000 0.0000 -0.0000
vn 0.8660 0.0000 0.5000
vn 0.5000 0.0000 0.8660
vn 0.0000 0.0000 1.0000
vn -0.5000 0.0000 0.8660
vn -0.8660 0.0000 0.5000
vn -1.0000 0.0000 0.0000
vn -0.8660 0.0000 -0.5000
vn -0.5000 0.0000 -0.8660
vn 0.0000 -1.0000 0.0000
vn 0.0000 1.0000 0.0000
vn 0.9659 0.0000 0.2588
vn -0.2588 0.0000 -0.9659
vn 0.7071 0.0000 -0.7071
vn 0.2588 0.0000 0.9659
vn -0.7071 0.0000 0.7071
vn -0.9659 0.0000 -0.2588
usemtl Material.002
s 1
f 26/1/1 3/2/2 1/3/1
f 25/4/2 5/5/3 3/2/2
f 27/6/3 7/7/4 5/5/3
f 28/8/4 9/9/5 7/7/4
f 29/10/5 11/11/6 9/9/5
f 30/12/6 13/13/7 11/11/6
f 31/14/7 15/15/8 13/13/7
f 32/16/8 17/17/9 15/15/8
f 33/18/9 19/19/10 17/17/9
f 34/20/10 21/21/11 19/19/10
f 2/22/1 50/23/2 4/24/2
f 35/25/11 23/26/12 21/21/11
f 36/27/12 1/28/1 23/26/12
f 7/29/13 15/30/13 23/31/13
f 4/24/14 26/32/14 2/22/14
f 6/33/14 25/34/14 4/24/14
f 6/33/14 28/35/14 27/36/14
f 10/37/14 28/35/14 8/38/14
f 10/37/14 30/39/14 29/40/14
f 14/41/14 30/39/14 12/42/14
f 14/41/14 32/43/14 31/44/14
f 18/45/14 32/43/14 16/46/14
f 18/45/14 34/47/14 33/48/14
f 22/49/14 34/47/14 20/50/14
f 24/51/14 35/52/14 22/49/14
f 2/22/14 36/53/14 24/51/14
f 87/54/14 49/55/14 86/56/14
f 16/46/8 58/57/9 18/45/9
f 10/37/5 55/58/6 12/42/6
f 24/51/12 51/59/1 2/22/1
f 4/24/2 52/60/3 6/33/3
f 18/45/9 59/61/10 20/50/10
f 12/42/6 56/62/7 14/41/7
f 6/33/3 53/63/4 8/38/4
f 20/50/10 60/64/11 22/49/11
f 14/41/7 57/65/8 16/46/8
f 8/38/4 54/66/5 10/37/5
f 22/49/11 61/67/12 24/51/12
f 90/68/14 49/55/14 93/69/14
f 95/70/14 49/55/14 94/71/14
f 89/72/14 49/55/14 88/73/14
f 93/69/14 49/55/14 92/74/14
f 49/55/14 87/54/14 96/75/14
f 97/76/14 49/55/14 96/75/14
f 91/77/14 49/55/14 90/68/14
f 94/71/14 49/55/14 97/76/14
f 88/73/14 49/55/14 91/77/14
f 92/74/14 49/55/14 95/70/14
f 86/56/14 49/55/14 89/72/14
f 75/78/14 51/59/14 84/79/14
f 74/80/14 50/23/14 75/78/14
f 77/81/14 52/60/14 74/80/14
f 76/82/14 53/63/14 77/81/14
f 79/83/14 54/66/14 76/82/14
f 78/84/14 55/58/14 79/83/14
f 81/85/14 56/62/14 78/84/14
f 80/86/14 57/65/14 81/85/14
f 83/87/14 58/57/14 80/86/14
f 82/88/14 59/61/14 83/87/14
f 85/89/14 60/64/14 82/88/14
f 84/79/14 61/67/14 85/89/14
f 96/75/14 75/78/14 84/79/14
f 38/90/10 120/91/10 63/92/10
f 89/72/14 74/80/14 86/56/14
f 69/93/11 105/94/11 44/95/11
f 88/73/14 79/83/14 76/82/14
f 46/96/15 106/97/15 47/98/15
f 90/68/14 81/85/14 78/84/14
f 63/92/16 121/99/16 73/100/16
f 95/70/14 80/86/14 92/74/14
f 43/101/4 114/102/4 68/103/4
f 97/76/14 82/88/14 94/71/14
f 44/95/17 104/104/17 45/105/17
f 39/106/14 75/78/14 37/107/14
f 41/108/14 77/81/14 40/109/14
f 43/101/14 79/83/14 42/110/14
f 44/95/14 80/86/14 81/85/14
f 46/96/14 82/88/14 83/87/14
f 48/111/14 84/79/14 85/89/14
f 62/112/14 86/56/14 64/113/14
f 65/114/14 88/73/14 66/115/14
f 67/116/14 90/68/14 68/103/14
f 69/93/14 92/74/14 70/117/14
f 72/118/14 95/70/14 94/71/14
f 63/92/14 97/76/14 96/75/14
f 38/90/14 96/75/14 84/79/14
f 37/107/14 87/54/14 62/112/14
f 39/106/14 86/56/14 74/80/14
f 40/109/14 89/72/14 65/114/14
f 41/108/14 88/73/14 76/82/14
f 42/110/14 91/77/14 67/116/14
f 43/101/14 90/68/14 78/84/14
f 44/95/14 93/69/14 69/93/14
f 45/105/14 92/74/14 80/86/14
f 46/96/14 95/70/14 71/119/14
f 47/98/14 94/71/14 82/88/14
f 48/111/14 97/76/14 73/100/14
f 110/120/14 99/121/14 111/122/14
f 112/123/14 101/124/14 113/125/14
f 114/102/14 103/126/14 115/127/14
f 117/128/14 104/104/14 105/94/14
f 118/129/14 107/130/14 119/131/14
f 121/99/14 108/132/14 109/133/14
f 48/111/18 108/132/18 38/90/18
f 45/105/6 116/134/6 70/117/6
f 62/112/5 99/121/5 37/107/5
f 64/113/17 111/122/17 62/112/17
f 71/119/1 107/130/1 46/96/1
f 39/106/12 110/120/12 64/113/12
f 66/115/15 113/125/15 65/114/15
f 47/98/8 118/129/8 72/118/8
f 37/107/19 98/135/19 39/106/19
f 65/114/7 101/124/7 40/109/7
f 68/103/18 115/127/18 67/116/18
f 73/100/3 109/133/3 48/111/3
f 40/109/20 100/136/20 41/108/20
f 41/108/2 112/123/2 66/115/2
f 70/117/19 117/128/19 69/93/19
f 42/110/16 102/137/16 43/101/16
f 67/116/9 103/126/9 42/110/9
f 72/118/20 119/131/20 71/119/20
f 26/1/1 25/4/2 3/2/2
f 25/4/2 27/6/3 5/5/3
f 27/6/3 28/8/4 7/7/4
f 28/8/4 29/10/5 9/9/5
f 29/10/5 30/12/6 11/11/6
f 30/12/6 31/14/7 13/13/7
f 31/14/7 32/16/8 15/15/8
f 32/16/8 33/18/9 17/17/9
f 33/18/9 34/20/10 19/19/10
f 34/20/10 35/25/11 21/21/11
f 2/22/1 51/59/1 50/23/2
f 35/25/11 36/27/12 23/26/12
f 36/27/12 26/138/1 1/28/1
f 23/31/13 1/139/13 3/140/13
f 3/140/13 5/141/13 23/31/13
f 5/141/13 7/29/13 23/31/13
f 7/29/13 9/142/13 11/143/13
f 11/143/13 13/144/13 15/30/13
f 15/30/13 17/145/13 19/146/13
f 19/146/13 21/147/13 23/31/13
f 7/29/13 11/143/13 15/30/13
f 15/30/13 19/146/13 23/31/13
f 4/24/14 25/34/14 26/32/14
f 6/33/14 27/36/14 25/34/14
f 6/33/14 8/38/14 28/35/14
f 10/37/14 29/40/14 28/35/14
f 10/37/14 12/42/14 30/39/14
f 14/41/14 31/44/14 30/39/14
f 14/41/14 16/46/14 32/43/14
f 18/45/14 33/48/14 32/43/14
f 18/45/14 20/50/14 34/47/14
f 22/49/14 35/52/14 34/47/14
f 24/51/14 36/53/14 35/52/14
f 2/22/14 26/32/14 36/53/14
f 16/46/8 57/65/8 58/57/9
f 10/37/5 54/66/5 55/58/6
f 24/51/12 61/67/12 51/59/1
f 4/24/2 50/23/2 52/60/3
f 18/45/9 58/57/9 59/61/10
f 12/42/6 55/58/6 56/62/7
f 6/33/3 52/60/3 53/63/4
f 20/50/10 59/61/10 60/64/11
f 14/41/7 56/62/7 57/65/8
f 8/38/4 53/63/4 54/66/5
f 22/49/11 60/64/11 61/67/12
f 75/78/14 50/23/14 51/59/14
f 74/80/14 52/60/14 50/23/14
f 77/81/14 53/63/14 52/60/14
f 76/82/14 54/66/14 53/63/14
f 79/83/14 55/58/14 54/66/14
f 78/84/14 56/62/14 55/58/14
f 81/85/14 57/65/14 56/62/14
f 80/86/14 58/57/14 57/65/14
f 83/87/14 59/61/14 58/57/14
f 82/88/14 60/64/14 59/61/14
f 85/89/14 61/67/14 60/64/14
f 84/79/14 51/59/14 61/67/14
f 96/75/14 87/54/14 75/78/14
f 38/90/10 108/132/10 120/91/10
f 89/72/14 77/81/14 74/80/14
f 69/93/11 117/128/11 105/94/11
f 88/73/14 91/77/14 79/83/14
f 46/96/15 107/130/15 106/97/15
f 90/68/14 93/69/14 81/85/14
f 63/92/16 120/91/16 121/99/16
f 95/70/14 83/87/14 80/86/14
f 43/101/4 102/137/4 114/102/4
f 97/76/14 85/89/14 82/88/14
f 44/95/17 105/94/17 104/104/17
f 39/106/14 74/80/14 75/78/14
f 41/108/14 76/82/14 77/81/14
f 43/101/14 78/84/14 79/83/14
f 44/95/14 45/105/14 80/86/14
f 46/96/14 47/98/14 82/88/14
f 48/111/14 38/90/14 84/79/14
f 62/112/14 87/54/14 86/56/14
f 65/114/14 89/72/14 88/73/14
f 67/116/14 91/77/14 90/68/14
f 69/93/14 93/69/14 92/74/14
f 72/118/14 71/119/14 95/70/14
f 63/92/14 73/100/14 97/76/14
f 38/90/14 63/92/14 96/75/14
f 37/107/14 75/78/14 87/54/14
f 39/106/14 64/113/14 86/56/14
f 40/109/14 77/81/14 89/72/14
f 41/108/14 66/115/14 88/73/14
f 42/110/14 79/83/14 91/77/14
f 43/101/14 68/103/14 90/68/14
f 44/95/14 81/85/14 93/69/14
f 45/105/14 70/117/14 92/74/14
f 46/96/14 83/87/14 95/70/14
f 47/98/14 72/118/14 94/71/14
f 48/111/14 85/89/14 97/76/14
f 110/120/14 98/135/14 99/121/14
f 112/123/14 100/136/14 101/124/14
f 114/102/14 102/137/14 103/126/14
f 117/128/14 116/134/14 104/104/14
f 118/129/14 106/97/14 107/130/14
f 121/99/14 120/91/14 108/132/14
f 48/111/18 109/133/18 108/132/18
f 45/105/6 104/104/6 116/134/6
f 62/112/5 111/122/5 99/121/5
f 64/113/17 110/120/17 111/122/17
f 71/119/1 119/131/1 107/130/1
f 39/106/12 98/135/12 110/120/12
f 66/115/15 112/123/15 113/125/15
f 47/98/8 106/97/8 118/129/8
f 37/107/19 99/121/19 98/135/19
f 65/114/7 113/125/7 101/124/7
f 68/103/18 114/102/18 115/127/18
f 73/100/3 121/99/3 109/133/3
f 40/109/20 101/124/20 100/136/20
f 41/108/2 100/136/2 112/123/2
f 70/117/19 116/134/19 117/128/19
f 42/110/16 103/126/16 102/137/16
f 67/116/9 115/127/9 103/126/9
f 72/118/20 118/129/20 119/131/20
