# Blender v2.80 (sub 75) OBJ File: 'patio.blend'
# www.blender.org
mtllib sewer.mtl
o Cube.001_Cube.029
v -2.060364 0.000000 0.179110
v -2.060364 0.022823 0.179110
v -2.060364 0.000000 -0.179110
v -2.060364 0.022823 -0.179110
v -1.345389 0.000000 0.179110
v -1.345389 0.022823 0.179110
v -1.345389 0.000000 -0.179110
v -1.345389 0.022823 -0.179110
v -2.060364 0.000000 -0.149259
v -2.060364 0.022823 -0.149259
v -1.345389 0.000000 -0.149259
v -1.345389 0.022823 -0.149259
v -2.060364 0.000000 0.147537
v -1.345389 0.022823 0.147537
v -2.060364 0.022823 0.147537
v -1.345389 0.000000 0.147537
v -1.424831 0.000000 -0.179110
v -1.504273 0.000000 -0.179110
v -1.583714 0.000000 -0.179110
v -1.663156 0.000000 -0.179110
v -1.742598 0.000000 -0.179110
v -1.822040 0.000000 -0.179110
v -1.901481 0.000000 -0.179110
v -1.980923 0.000000 -0.179110
v -1.980923 0.022823 -0.179110
v -1.901481 0.022823 -0.179110
v -1.822040 0.022823 -0.179110
v -1.742598 0.022823 -0.179110
v -1.663156 0.022823 -0.179110
v -1.583714 0.022823 -0.179110
v -1.504273 0.022823 -0.179110
v -1.424831 0.022823 -0.179110
v -1.980923 0.000000 0.179110
v -1.901481 0.000000 0.179110
v -1.822040 0.000000 0.179110
v -1.742598 0.000000 0.179110
v -1.663156 0.000000 0.179110
v -1.583714 0.000000 0.179110
v -1.504273 0.000000 0.179110
v -1.424831 0.000000 0.179110
v -1.424831 0.022823 0.179110
v -1.504273 0.022823 0.179110
v -1.583714 0.022823 0.179110
v -1.663156 0.022823 0.179110
v -1.742598 0.022823 0.179110
v -1.822040 0.022823 0.179110
v -1.901481 0.022823 0.179110
v -1.980923 0.022823 0.179110
v -1.975375 0.022823 -0.146479
v -1.907029 0.022823 -0.146479
v -1.816491 0.022823 -0.146479
v -1.748146 0.022823 -0.146479
v -1.657608 0.022823 -0.146479
v -1.589263 0.022823 -0.146479
v -1.498725 0.022823 -0.146479
v -1.430379 0.022823 -0.146479
v -1.424831 0.000000 -0.149259
v -1.504273 0.000000 -0.149259
v -1.583714 0.000000 -0.149259
v -1.663156 0.000000 -0.149259
v -1.742598 0.000000 -0.149259
v -1.822040 0.000000 -0.149259
v -1.901481 0.000000 -0.149259
v -1.980923 0.000000 -0.149259
v -1.975375 0.022823 0.144757
v -1.907029 0.022823 0.144757
v -1.816491 0.022823 0.144757
v -1.748146 0.022823 0.144757
v -1.657608 0.022823 0.144757
v -1.589263 0.022823 0.144757
v -1.498725 0.022823 0.144757
v -1.430379 0.022823 0.144757
v -1.424831 0.000000 0.147537
v -1.504273 0.000000 0.147537
v -1.583714 0.000000 0.147537
v -1.663156 0.000000 0.147537
v -1.742598 0.000000 0.147537
v -1.822040 0.000000 0.147537
v -1.901481 0.000000 0.147537
v -1.980923 0.000000 0.147537
v -1.980923 0.022823 -0.149259
v -1.901481 0.022823 -0.149259
v -1.822040 0.022823 -0.149259
v -1.742598 0.022823 -0.149259
v -1.663156 0.022823 -0.149259
v -1.583714 0.022823 -0.149259
v -1.504273 0.022823 -0.149259
v -1.424831 0.022823 -0.149259
v -1.980923 0.022823 0.147537
v -1.901481 0.022823 0.147537
v -1.822040 0.022823 0.147537
v -1.742598 0.022823 0.147537
v -1.663156 0.022823 0.147537
v -1.583714 0.022823 0.147537
v -1.504273 0.022823 0.147537
v -1.424831 0.022823 0.147537
v -1.975375 0.002310 -0.146479
v -1.907029 0.002310 -0.146479
v -1.816491 0.002310 -0.146479
v -1.748146 0.002310 -0.146479
v -1.657608 0.002310 -0.146479
v -1.589263 0.002310 -0.146479
v -1.498725 0.002310 -0.146479
v -1.430379 0.002310 -0.146479
v -1.975375 0.002310 0.144757
v -1.907029 0.002310 0.144757
v -1.816491 0.002310 0.144757
v -1.748146 0.002310 0.144757
v -1.657608 0.002310 0.144757
v -1.589263 0.002310 0.144757
v -1.498725 0.002310 0.144757
v -1.430379 0.002310 0.144757
vt 0.625000 0.229167
vt 0.375000 0.250000
vt 0.375000 0.229167
vt 0.625000 0.472222
vt 0.375000 0.500000
vt 0.375000 0.472222
vt 0.625000 0.727965
vt 0.375000 0.750000
vt 0.375000 0.727965
vt 0.625000 0.972222
vt 0.375000 1.000000
vt 0.375000 0.972222
vt 0.347222 0.750000
vt 0.347222 0.727965
vt 0.875000 0.727965
vt 0.847222 0.750000
vt 0.847222 0.727965
vt 0.875000 0.500000
vt 0.847222 0.520833
vt 0.847222 0.500000
vt 0.347222 0.520833
vt 0.347222 0.500000
vt 0.625000 0.500000
vt 0.375000 0.520833
vt 0.625000 0.022035
vt 0.375000 0.022035
vt 0.625000 0.000000
vt 0.375000 0.000000
vt 0.875000 0.520833
vt 0.625000 0.520833
vt 0.152778 0.520833
vt 0.125000 0.727965
vt 0.125000 0.520833
vt 0.180556 0.520833
vt 0.152778 0.727965
vt 0.208333 0.520833
vt 0.180556 0.727965
vt 0.236111 0.520833
vt 0.208333 0.727965
vt 0.263889 0.520833
vt 0.236111 0.727965
vt 0.291667 0.520833
vt 0.263889 0.727965
vt 0.319444 0.520833
vt 0.291667 0.727965
vt 0.319444 0.727965
vt 0.652778 0.520833
vt 0.654718 0.726025
vt 0.678616 0.726025
vt 0.678616 0.726025
vt 0.708333 0.520833
vt 0.680556 0.727965
vt 0.680556 0.520833
vt 0.821384 0.522773
vt 0.821384 0.726025
vt 0.821384 0.726025
vt 0.763889 0.520833
vt 0.736111 0.727965
vt 0.736111 0.520833
vt 0.710273 0.726025
vt 0.734171 0.726025
vt 0.734171 0.726025
vt 0.819444 0.520833
vt 0.791667 0.727965
vt 0.791667 0.520833
vt 0.789727 0.726025
vt 0.789727 0.522773
vt 0.789727 0.522773
vt 0.152778 0.500000
vt 0.125000 0.500000
vt 0.180556 0.500000
vt 0.208333 0.500000
vt 0.236111 0.500000
vt 0.263889 0.500000
vt 0.291667 0.500000
vt 0.319444 0.500000
vt 0.652778 0.500000
vt 0.680556 0.500000
vt 0.708333 0.500000
vt 0.736111 0.500000
vt 0.763889 0.500000
vt 0.791667 0.500000
vt 0.819444 0.500000
vt 0.652778 0.727965
vt 0.625000 0.750000
vt 0.652778 0.750000
vt 0.708333 0.727965
vt 0.680556 0.750000
vt 0.708333 0.750000
vt 0.763889 0.727965
vt 0.736111 0.750000
vt 0.763889 0.750000
vt 0.819444 0.727965
vt 0.791667 0.750000
vt 0.819444 0.750000
vt 0.125000 0.750000
vt 0.152778 0.750000
vt 0.180556 0.750000
vt 0.208333 0.750000
vt 0.236111 0.750000
vt 0.263889 0.750000
vt 0.291667 0.750000
vt 0.319444 0.750000
vt 0.375000 0.777778
vt 0.625000 0.777778
vt 0.375000 0.805556
vt 0.625000 0.805556
vt 0.375000 0.833333
vt 0.625000 0.833333
vt 0.375000 0.861111
vt 0.625000 0.861111
vt 0.375000 0.888889
vt 0.625000 0.888889
vt 0.375000 0.916667
vt 0.625000 0.916667
vt 0.375000 0.944444
vt 0.625000 0.944444
vt 0.625000 0.250000
vt 0.375000 0.277778
vt 0.625000 0.277778
vt 0.375000 0.305556
vt 0.625000 0.305556
vt 0.375000 0.333333
vt 0.625000 0.333333
vt 0.375000 0.361111
vt 0.625000 0.361111
vt 0.375000 0.388889
vt 0.625000 0.388889
vt 0.375000 0.416667
vt 0.625000 0.416667
vt 0.375000 0.444444
vt 0.625000 0.444444
vt 0.845282 0.522773
vt 0.710273 0.522773
vt 0.734171 0.522773
vt 0.654718 0.522773
vt 0.678615 0.522773
vt 0.845282 0.726025
vt 0.765829 0.726025
vt 0.765829 0.522773
vt 0.678615 0.522773
vt 0.654718 0.726025
vt 0.654718 0.522773
vt 0.734171 0.522773
vt 0.710273 0.726025
vt 0.710273 0.522773
vt 0.765829 0.726025
vt 0.765829 0.522773
vt 0.845282 0.522773
vt 0.821384 0.522773
vt 0.845282 0.726025
vt 0.789727 0.726025
vt 0.625000 1.000000
vt 0.875000 0.750000
vn -1.0000 0.0000 0.0000
vn 0.0000 0.0000 -1.0000
vn 1.0000 0.0000 0.0000
vn 0.0000 0.0000 1.0000
vn 0.0000 -1.0000 0.0000
vn 0.0000 1.0000 0.0000
usemtl Material.001
s off
f 10/1/1 3/2/1 9/3/1
f 32/4/2 7/5/2 17/6/2
f 14/7/3 5/8/3 16/9/3
f 48/10/4 1/11/4 33/12/4
f 16/9/5 40/13/5 73/14/5
f 15/15/6 48/16/6 89/17/6
f 4/18/6 81/19/6 25/20/6
f 7/5/5 57/21/5 17/22/5
f 8/23/3 11/24/3 7/5/3
f 15/25/1 9/3/1 13/26/1
f 2/27/1 13/26/1 1/28/1
f 10/29/6 89/17/6 81/19/6
f 11/24/5 73/14/5 57/21/5
f 12/30/3 16/9/3 11/24/3
f 64/31/5 13/32/5 9/33/5
f 63/34/5 80/35/5 64/31/5
f 62/36/5 79/37/5 63/34/5
f 61/38/5 78/39/5 62/36/5
f 60/40/5 77/41/5 61/38/5
f 59/42/5 76/43/5 60/40/5
f 58/44/5 75/45/5 59/42/5
f 57/21/5 74/46/5 58/44/5
f 88/47/6 14/7/6 12/30/6
f 72/48/2 111/49/2 71/50/2
f 86/51/6 95/52/6 87/53/6
f 50/54/1 106/55/1 66/56/1
f 84/57/6 93/58/6 85/59/6
f 70/60/2 109/61/2 69/62/2
f 82/63/6 91/64/6 83/65/6
f 67/66/3 99/67/3 51/68/3
f 24/69/5 9/33/5 3/70/5
f 23/71/5 64/31/5 24/69/5
f 22/72/5 63/34/5 23/71/5
f 21/73/5 62/36/5 22/72/5
f 20/74/5 61/38/5 21/73/5
f 19/75/5 60/40/5 20/74/5
f 18/76/5 59/42/5 19/75/5
f 17/22/5 58/44/5 18/76/5
f 32/77/6 12/30/6 8/23/6
f 31/78/6 88/47/6 32/77/6
f 30/79/6 87/53/6 31/78/6
f 29/80/6 86/51/6 30/79/6
f 28/81/6 85/59/6 29/80/6
f 27/82/6 84/57/6 28/81/6
f 26/83/6 83/65/6 27/82/6
f 25/20/6 82/63/6 26/83/6
f 96/84/6 6/85/6 14/7/6
f 95/52/6 41/86/6 96/84/6
f 94/87/6 42/88/6 95/52/6
f 93/58/6 43/89/6 94/87/6
f 92/90/6 44/91/6 93/58/6
f 91/64/6 45/92/6 92/90/6
f 90/93/6 46/94/6 91/64/6
f 89/17/6 47/95/6 90/93/6
f 80/35/5 1/96/5 13/32/5
f 79/37/5 33/97/5 80/35/5
f 78/39/5 34/98/5 79/37/5
f 77/41/5 35/99/5 78/39/5
f 76/43/5 36/100/5 77/41/5
f 75/45/5 37/101/5 76/43/5
f 74/46/5 38/102/5 75/45/5
f 73/14/5 39/103/5 74/46/5
f 6/85/4 40/104/4 5/8/4
f 41/105/4 39/106/4 40/104/4
f 42/107/4 38/108/4 39/106/4
f 43/109/4 37/110/4 38/108/4
f 44/111/4 36/112/4 37/110/4
f 45/113/4 35/114/4 36/112/4
f 46/115/4 34/116/4 35/114/4
f 47/117/4 33/12/4 34/116/4
f 4/118/2 24/119/2 3/2/2
f 25/120/2 23/121/2 24/119/2
f 26/122/2 22/123/2 23/121/2
f 27/124/2 21/125/2 22/123/2
f 28/126/2 20/127/2 21/125/2
f 29/128/2 19/129/2 20/127/2
f 30/130/2 18/131/2 19/129/2
f 31/132/2 17/6/2 18/131/2
f 50/54/6 81/19/6 49/133/6
f 51/68/6 84/57/6 83/65/6
f 54/134/6 85/59/6 53/135/6
f 56/136/6 87/53/6 55/137/6
f 65/138/6 90/93/6 66/56/6
f 67/66/6 92/90/6 68/139/6
f 69/62/6 94/87/6 70/60/6
f 71/50/6 96/84/6 72/48/6
f 56/136/6 96/84/6 88/47/6
f 71/50/6 87/53/6 95/52/6
f 54/134/6 94/87/6 86/51/6
f 69/62/6 85/59/6 93/58/6
f 52/140/6 92/90/6 84/57/6
f 67/66/6 83/65/6 91/64/6
f 50/54/6 90/93/6 82/63/6
f 65/138/6 81/19/6 89/17/6
f 103/141/6 112/142/6 104/143/6
f 101/144/6 110/145/6 102/146/6
f 99/67/6 108/147/6 100/148/6
f 97/149/6 106/55/6 98/150/6
f 49/133/4 98/150/4 50/54/4
f 65/138/3 97/149/3 49/133/3
f 56/136/1 112/142/1 72/48/1
f 51/68/4 100/148/4 52/140/4
f 71/50/3 103/141/3 55/137/3
f 53/135/4 102/146/4 54/134/4
f 54/134/1 110/145/1 70/60/1
f 55/137/4 104/143/4 56/136/4
f 69/62/3 101/144/3 53/135/3
f 66/56/2 105/151/2 65/138/2
f 52/140/1 108/147/1 68/139/1
f 68/139/2 107/152/2 67/66/2
f 10/1/1 4/118/1 3/2/1
f 32/4/2 8/23/2 7/5/2
f 14/7/3 6/85/3 5/8/3
f 48/10/4 2/153/4 1/11/4
f 16/9/5 5/8/5 40/13/5
f 15/15/6 2/154/6 48/16/6
f 4/18/6 10/29/6 81/19/6
f 7/5/5 11/24/5 57/21/5
f 8/23/3 12/30/3 11/24/3
f 15/25/1 10/1/1 9/3/1
f 2/27/1 15/25/1 13/26/1
f 10/29/6 15/15/6 89/17/6
f 11/24/5 16/9/5 73/14/5
f 12/30/3 14/7/3 16/9/3
f 64/31/5 80/35/5 13/32/5
f 63/34/5 79/37/5 80/35/5
f 62/36/5 78/39/5 79/37/5
f 61/38/5 77/41/5 78/39/5
f 60/40/5 76/43/5 77/41/5
f 59/42/5 75/45/5 76/43/5
f 58/44/5 74/46/5 75/45/5
f 57/21/5 73/14/5 74/46/5
f 88/47/6 96/84/6 14/7/6
f 72/48/2 112/142/2 111/49/2
f 86/51/6 94/87/6 95/52/6
f 50/54/1 98/150/1 106/55/1
f 84/57/6 92/90/6 93/58/6
f 70/60/2 110/145/2 109/61/2
f 82/63/6 90/93/6 91/64/6
f 67/66/3 107/152/3 99/67/3
f 24/69/5 64/31/5 9/33/5
f 23/71/5 63/34/5 64/31/5
f 22/72/5 62/36/5 63/34/5
f 21/73/5 61/38/5 62/36/5
f 20/74/5 60/40/5 61/38/5
f 19/75/5 59/42/5 60/40/5
f 18/76/5 58/44/5 59/42/5
f 17/22/5 57/21/5 58/44/5
f 32/77/6 88/47/6 12/30/6
f 31/78/6 87/53/6 88/47/6
f 30/79/6 86/51/6 87/53/6
f 29/80/6 85/59/6 86/51/6
f 28/81/6 84/57/6 85/59/6
f 27/82/6 83/65/6 84/57/6
f 26/83/6 82/63/6 83/65/6
f 25/20/6 81/19/6 82/63/6
f 96/84/6 41/86/6 6/85/6
f 95/52/6 42/88/6 41/86/6
f 94/87/6 43/89/6 42/88/6
f 93/58/6 44/91/6 43/89/6
f 92/90/6 45/92/6 44/91/6
f 91/64/6 46/94/6 45/92/6
f 90/93/6 47/95/6 46/94/6
f 89/17/6 48/16/6 47/95/6
f 80/35/5 33/97/5 1/96/5
f 79/37/5 34/98/5 33/97/5
f 78/39/5 35/99/5 34/98/5
f 77/41/5 36/100/5 35/99/5
f 76/43/5 37/101/5 36/100/5
f 75/45/5 38/102/5 37/101/5
f 74/46/5 39/103/5 38/102/5
f 73/14/5 40/13/5 39/103/5
f 6/85/4 41/105/4 40/104/4
f 41/105/4 42/107/4 39/106/4
f 42/107/4 43/109/4 38/108/4
f 43/109/4 44/111/4 37/110/4
f 44/111/4 45/113/4 36/112/4
f 45/113/4 46/115/4 35/114/4
f 46/115/4 47/117/4 34/116/4
f 47/117/4 48/10/4 33/12/4
f 4/118/2 25/120/2 24/119/2
f 25/120/2 26/122/2 23/121/2
f 26/122/2 27/124/2 22/123/2
f 27/124/2 28/126/2 21/125/2
f 28/126/2 29/128/2 20/127/2
f 29/128/2 30/130/2 19/129/2
f 30/130/2 31/132/2 18/131/2
f 31/132/2 32/4/2 17/6/2
f 50/54/6 82/63/6 81/19/6
f 51/68/6 52/140/6 84/57/6
f 54/134/6 86/51/6 85/59/6
f 56/136/6 88/47/6 87/53/6
f 65/138/6 89/17/6 90/93/6
f 67/66/6 91/64/6 92/90/6
f 69/62/6 93/58/6 94/87/6
f 71/50/6 95/52/6 96/84/6
f 56/136/6 72/48/6 96/84/6
f 71/50/6 55/137/6 87/53/6
f 54/134/6 70/60/6 94/87/6
f 69/62/6 53/135/6 85/59/6
f 52/140/6 68/139/6 92/90/6
f 67/66/6 51/68/6 83/65/6
f 50/54/6 66/56/6 90/93/6
f 65/138/6 49/133/6 81/19/6
f 103/141/6 111/49/6 112/142/6
f 101/144/6 109/61/6 110/145/6
f 99/67/6 107/152/6 108/147/6
f 97/149/6 105/151/6 106/55/6
f 49/133/4 97/149/4 98/150/4
f 65/138/3 105/151/3 97/149/3
f 56/136/1 104/143/1 112/142/1
f 51/68/4 99/67/4 100/148/4
f 71/50/3 111/49/3 103/141/3
f 53/135/4 101/144/4 102/146/4
f 54/134/1 102/146/1 110/145/1
f 55/137/4 103/141/4 104/143/4
f 69/62/3 109/61/3 101/144/3
f 66/56/2 106/55/2 105/151/2
f 52/140/1 100/148/1 108/147/1
f 68/139/2 108/147/2 107/152/2
